<?xml version="1.0" encoding="UTF-8"?>
<svg width="139px" height="169px" viewBox="0 0 139 169" version="1.1" xmlns="http://www.w3.org/2000/svg" xmlns:xlink="http://www.w3.org/1999/xlink">
    <!-- Generator: Sketch 49.1 (51147) - http://www.bohemiancoding.com/sketch -->
    <title>logo-eight</title>
    <desc>Created with Sketch.</desc>
    <defs>
        <polygon id="path-1" points="10.7340656 9.63650808 10.7340656 0.316275843 0.693869752 0.316275843 0.693869752 9.63650808 10.7340656 9.63650808"></polygon>
        <polygon id="path-3" points="5.98769742 10.0544566 0.733540867 10.0544566 0.733540867 0.145557595 5.98769742 0.145557595"></polygon>
        <polygon id="path-5" points="0 8.631519 0 0.645186748 9.10246285 0.645186748 9.10246285 8.631519 2.99224888e-16 8.631519"></polygon>
        <polygon id="path-7" points="0 7.99716012 0 0.0108278764 9.10246285 0.0108278764 9.10246285 7.99716012"></polygon>
    </defs>
    <g id="Page-1" stroke="none" stroke-width="1" fill="none" fill-rule="evenodd">
        <g id="Mobile" transform="translate(-216.000000, -1827.000000)">
            <g id="Group-6" transform="translate(0.000000, 1470.000000)"></g>
            <g id="Group-11" transform="translate(216.000000, 1826.000000)">
                <g id="Group-10" transform="translate(94.049080, 0.000000)" fill="#7392B7">
                    <g id="parts/8" transform="translate(0.156717, 0.297611)">
                        <g id="Group" transform="translate(0.000000, 0.997661)">
                            <path d="M22.4096097,34.7346855 C11.2303103,34.7346855 2.13457711,43.8304188 2.13457711,55.0109502 C2.13457711,66.1908656 11.2303103,75.2865989 22.4096097,75.2865989 C33.5895251,75.2865989 42.6858744,66.1908656 42.6858744,55.0109502 C42.6858744,43.8304188 33.5895251,34.7346855 22.4096097,34.7346855 M22.4096097,76.9345998 C10.3209835,76.9345998 0.486576138,67.0995764 0.486576138,55.0109502 C0.486576138,42.9217079 10.3209835,33.0866845 22.4096097,33.0866845 C34.498852,33.0866845 44.3338754,42.9217079 44.3338754,55.0109502 C44.3338754,67.0995764 34.498852,76.9345998 22.4096097,76.9345998" id="Fill-1"></path>
                            <path d="M22.4096097,43.8476689 C16.254403,43.8476689 11.2469444,48.8551275 11.2469444,55.0109502 C11.2469444,61.1661569 16.254403,66.1736155 22.4096097,66.1736155 C28.5654324,66.1736155 33.572891,61.1661569 33.572891,55.0109502 C33.572891,48.8551275 28.5654324,43.8476689 22.4096097,43.8476689 M22.4096097,67.8216165 C15.3456922,67.8216165 9.5989434,62.0748677 9.5989434,55.0109502 C9.5989434,47.9464167 15.3456922,42.1996679 22.4096097,42.1996679 C29.4741432,42.1996679 35.220892,47.9464167 35.220892,55.0109502 C35.220892,62.0748677 29.4741432,67.8216165 22.4096097,67.8216165" id="Fill-3"></path>
                            <g id="circle">
                                <path d="M22.4096097,1.64830901 C11.2303103,1.64830901 2.13457711,10.7440422 2.13457711,21.9245737 C2.13457711,33.1044891 11.2303103,42.2002224 22.4096097,42.2002224 C33.5895251,42.2002224 42.6858744,33.1044891 42.6858744,21.9245737 C42.6858744,10.7440422 33.5895251,1.64830901 22.4096097,1.64830901 M22.4096097,43.8482233 C10.3209835,43.8482233 0.486576138,34.0131999 0.486576138,21.9245737 C0.486576138,9.83533143 10.3209835,0.000308037565 22.4096097,0.000308037565 C34.498852,0.000308037565 44.3338754,9.83533143 44.3338754,21.9245737 C44.3338754,34.0131999 34.498852,43.8482233 22.4096097,43.8482233" id="Fill-5"></path>
                                <path d="M22.4096097,10.7612923 C16.254403,10.7612923 11.2469444,15.768751 11.2469444,21.9245737 C11.2469444,28.0791643 16.254403,33.087239 22.4096097,33.087239 C28.5654324,33.087239 33.572891,28.0791643 33.572891,21.9245737 C33.572891,15.768751 28.5654324,10.7612923 22.4096097,10.7612923 M22.4096097,34.73524 C15.3456922,34.73524 9.5989434,28.9878751 9.5989434,21.9245737 C9.5989434,14.8600402 15.3456922,9.11329137 22.4096097,9.11329137 C29.4741432,9.11329137 35.220892,14.8600402 35.220892,21.9245737 C35.220892,28.9878751 29.4741432,34.73524 22.4096097,34.73524" id="Fill-7"></path>
                            </g>
                        </g>
                    </g>
                </g>
                <g id="Group-2" transform="translate(0.151952, 108.377957)">
                    <g id="Page-1" transform="translate(0.000000, -0.000000)">
                        <path d="M115.97137,4.70718723 C115.471932,4.70718723 115.093101,4.67006308 115.093101,4.31583684 C115.093101,4.15805921 115.215254,3.99873475 115.447192,3.99873475 C115.484302,3.99873475 115.519866,3.99873475 115.556976,4.01110946 C115.727063,4.03431205 115.911067,4.04668677 116.105894,4.04668677 C116.729033,4.04668677 117.412475,3.92448645 118.034068,3.75433411 C117.78976,3.33823429 117.723271,3.14178567 117.41866,2.54470563 C116.880565,2.66690595 116.294537,2.75043528 115.672944,2.75043528 C115.283289,2.75043528 114.916828,2.72723269 114.916828,2.36063173 C114.916828,2.2260567 115.014242,2.10385638 115.222986,2.10385638 L115.306483,2.10385638 C115.502857,2.12860581 115.697684,2.14098053 115.892512,2.14098053 C116.331647,2.14098053 116.759958,2.08065379 117.149613,1.99403078 C116.783152,1.23917311 116.410505,0.564751095 116.387312,0.515252232 C116.364118,0.467300208 116.314638,0.345099889 116.314638,0.272398433 C116.314638,0.10069925 116.472355,0.000154683948 116.642443,0.000154683948 C116.984164,0.000154683948 116.964063,0.205884335 117.723271,1.84708103 C118.187146,1.70322495 118.578348,1.51760422 118.870589,1.3722013 C118.943262,1.33507716 119.015936,1.31187457 119.090156,1.31187457 C119.284984,1.31187457 119.407137,1.46965219 119.407137,1.64135137 C119.407137,1.82387843 119.297354,1.99403078 117.978403,2.39775588 C118.25982,2.99638276 118.326309,3.1820035 118.570616,3.59500964 C119.094795,3.4248573 119.535476,3.22995552 119.815347,3.07063106 C119.900391,3.02113219 119.985435,2.9979296 120.059655,2.9979296 C120.254482,2.9979296 120.389006,3.15570723 120.389006,3.33823429 C120.389006,3.57180705 120.157068,3.74195939 118.924707,4.16888709 L119.315909,4.75513925 C119.547846,5.09699078 120.048831,5.83328637 120.048831,6.56494145 C120.048831,6.80934209 119.986981,7.18831776 119.68237,7.18831776 C119.462802,7.18831776 119.169015,7.00424386 118.974187,6.91916769 C118.450009,6.69951648 117.743373,6.57731616 117.05993,6.57731616 C115.583262,6.57731616 115.069907,7.07694532 115.069907,7.55491872 C115.069907,8.23707493 116.07033,8.77537507 117.364541,8.77537507 C117.571739,8.77537507 117.766566,8.76300035 117.973764,8.7258762 C118.023244,8.71350149 118.060354,8.71350149 118.108288,8.71350149 C118.388159,8.71350149 118.535053,8.87127912 118.535053,9.0429783 C118.535053,9.36008039 118.218071,9.45753128 117.608849,9.45753128 C116.241964,9.45753128 114.423575,8.92232482 114.423575,7.57812131 C114.423575,6.12563903 116.412052,6.01581343 117.144974,6.01581343 C117.559369,6.01581343 118.108288,6.05293758 118.85358,6.19988733 C118.963364,6.22308992 119.060777,6.23546464 119.133451,6.23546464 C119.243235,6.23546464 119.291169,6.19988733 119.291169,6.09006173 C119.291169,5.7482102 119.107165,5.4620449 118.375789,4.34058627 C117.618126,4.54786276 116.764597,4.70718723 115.97137,4.70718723" id="Fill-1" fill="#5E89BB"></path>
                        <path d="M116.945353,21.7103562 C116.589716,21.7103562 116.207792,21.6716852 115.798036,21.5927964 C115.575376,21.5525786 115.470231,21.3808794 115.470231,21.210727 C115.470231,21.037481 115.589292,20.8534071 115.824322,20.8534071 C115.850608,20.8534071 115.890811,20.8673287 115.917097,20.8673287 C116.300567,20.9322959 116.628372,20.960139 116.931437,20.960139 C117.999895,20.960139 118.499334,20.5641481 118.499334,20.0227543 C118.499334,19.6546065 118.262758,19.2199446 117.788059,18.811579 C117.563853,18.6135835 117.143273,18.310403 116.826292,18.0474403 C116.470655,17.7303382 116.326853,17.4008614 116.326853,17.057463 C116.326853,16.412431 116.852578,15.7148064 117.458708,15.0295565 C117.642712,14.8176395 117.801976,14.6474871 117.801976,14.4494917 C117.801976,14.1447643 117.406136,13.790538 116.430452,13.3156583 C116.312937,13.2630658 116.260365,13.1578807 116.260365,13.0650703 C116.260365,12.894918 116.418082,12.721672 116.628372,12.721672 C116.971639,12.721672 118.578193,13.5662463 118.578193,14.4355701 C118.578193,14.7526722 118.380273,15.0682275 118.038552,15.4116258 C117.444792,15.9777691 117.024212,16.4913198 117.024212,16.9538248 C117.024212,17.1765697 117.129357,17.3884867 117.379849,17.5849353 C117.735487,17.8633664 118.038552,18.0861113 118.329247,18.3243246 C119.012689,18.8904678 119.34204,19.5231252 119.34204,20.0753469 C119.34204,20.9848885 118.486964,21.7103562 116.945353,21.7103562" id="Fill-3" fill="#5E89BB"></path>
                        <g id="Group-7" transform="translate(112.275834, 24.851368)">
                            <mask id="mask-2" fill="white">
                                <use xlink:href="#path-1"></use>
                            </mask>
                            <g id="Clip-6"></g>
                            <path d="M6.78494377,7.46937849 C6.07212265,7.51114316 5.84327769,7.89630619 5.86028644,8.21186144 C5.87574894,8.46399628 5.99481016,8.78883257 6.44786133,8.7548021 C7.10501746,8.70530324 7.75444235,8.29848446 8.15646727,7.68284234 C7.69877736,7.53589259 7.21943994,7.44153538 6.78494377,7.46937849 Z M2.82035949,4.82428298 C2.82809074,4.49480617 2.84973823,4.16378252 2.85746948,3.84668042 C2.48636955,4.02456697 1.84776842,4.41746419 1.49367723,4.6881611 C1.37925475,4.77478411 1.27565602,4.8057209 1.19679728,4.81036142 C0.998877319,4.8211893 0.88600109,4.66959903 0.876723591,4.5118214 C0.868992343,4.38034005 0.927749832,4.24421817 1.05454231,4.17151672 C1.6575797,3.83430571 2.24360834,3.47079843 2.88684823,3.17225841 C2.92705072,2.00748828 2.93323572,1.32069155 2.91313447,0.728252028 C2.90076447,0.491585588 3.08167569,0.326073763 3.24093941,0.316792726 C3.42494313,0.30596485 3.63059434,0.466836156 3.64141809,0.650910054 C3.64451059,0.703502597 3.62904809,0.898404371 3.51926436,2.93713881 L3.53318061,2.93713881 C3.78367306,2.92321725 3.96303803,3.07171384 3.97850053,3.34859811 C3.98932428,3.54504673 3.98004678,3.59763927 3.48833937,4.72219157 C5.42269777,2.2982941 7.03234373,2.53805422 7.38798116,2.5411479 C8.66363718,2.55197578 9.30842331,3.99672385 9.3671808,5.39661359 C9.39965205,6.12053446 9.34398706,6.75783233 9.12596585,7.33789714 C9.74755824,7.59312565 10.7108718,8.25362611 10.7340656,8.64807018 C10.7464356,8.87081506 10.5454231,9.06726368 10.3351331,9.07963839 C10.2439044,9.08427891 10.1495832,9.06262316 10.0800019,8.98682802 C9.68880075,8.61403971 9.30687706,8.19948673 8.80434591,7.95044557 C8.23223351,8.79966045 7.33850117,9.34105427 6.48187883,9.37199106 C6.01645766,9.39055313 5.2557028,9.17244876 5.20622281,8.30312497 C5.17529781,7.76327799 5.55103649,6.95892146 6.87153376,6.89704788 C7.38488866,6.87075161 7.91679857,6.94345307 8.43943097,7.09968386 C8.63271219,6.54591532 8.68064593,6.08186348 8.64972093,5.52964178 C8.62498094,5.09497989 8.63735094,4.84903241 8.51674346,4.43911995 C8.30490725,3.71983959 7.79464484,3.2542409 7.24417994,3.26661562 C6.58547756,3.28053717 5.33765403,3.35014495 3.43422063,5.63482687 C3.42030438,6.33709199 3.43267438,7.02079504 3.46669187,7.65345239 C3.50070937,8.24589191 3.49297812,8.86153403 3.50225562,9.20647923 C3.50998686,9.45706723 3.32907565,9.63650061 3.13115568,9.63650061 C2.76314825,9.63804745 2.75387075,9.39983417 2.72603826,8.50885462 C2.70748326,7.91486826 2.78170325,7.18940055 2.79098074,6.39741873 C2.4971933,6.81042487 1.6637647,8.42687213 1.50913973,8.73933371 C1.39162475,8.98373435 1.22462978,9.0719042 1.08082855,9.08118523 C0.949397328,9.08737259 0.708182372,9.03632689 0.694266124,8.78573889 C0.689627375,8.69292852 0.723644869,8.59857131 0.906102336,8.32478073 C0.967952325,8.24125139 1.04217231,8.15772206 1.1132998,8.03552174 C1.28184102,7.74935644 1.47666848,7.44772274 1.68386595,7.13216749 C2.03022588,6.49332278 2.48327705,5.62245215 2.82499824,4.90471863 L2.82035949,4.82428298 Z" id="Fill-5" fill="#5E89BB" mask="url(#mask-2)"></path>
                        </g>
                        <path d="M122.232599,21.0684178 C121.903248,19.9887238 121.501223,19.5061099 121.014155,19.1642584 C120.895093,19.0853696 120.856437,18.9925592 120.856437,18.8997488 C120.856437,18.7419712 121.014155,18.5965683 121.199705,18.5965683 C121.739346,18.5965683 123.008817,20.1062836 123.008817,20.9106402 C123.008817,21.1875244 122.798527,21.3468489 122.588237,21.3468489 C122.442889,21.3468489 122.297542,21.2664133 122.232599,21.0684178" id="Fill-8" fill="#5E89BB"></path>
                        <path d="M112.939175,21.3220995 C112.742801,21.3220995 112.583537,21.1766966 112.583537,20.9787011 C112.583537,20.873516 112.63611,20.7559562 112.742801,20.6368496 C113.24224,20.0970026 113.673643,19.6097482 114.10814,18.8316879 C114.200915,18.6723634 114.319976,18.6213177 114.425121,18.6213177 C114.623041,18.6213177 114.794674,18.7775485 114.794674,18.975544 C114.794674,19.2926461 114.03392,20.3073728 113.361301,21.0978078 C113.215953,21.2555854 113.070606,21.3220995 112.939175,21.3220995" id="Fill-10" fill="#5E89BB"></path>
                        <path d="M115.507032,54.8691808 L117.059466,54.8800086 C117.265118,54.8800086 117.373355,54.722231 117.373355,54.5690939 C117.373355,54.4221441 117.263571,54.2674602 117.059466,54.2674602 L115.519402,54.2782881 C115.52404,53.845173 115.530225,53.4569163 115.534864,53.1475484 C115.539503,52.7995095 115.542595,52.5612962 115.542595,52.466939 C116.988339,52.0740418 117.059466,51.9394668 117.059466,51.7383776 C117.059466,51.571319 116.907934,51.4135413 116.747124,51.4135413 C116.714653,51.4135413 116.689913,51.4212755 116.665173,51.4305566 L116.641979,51.4398376 C115.559604,51.8915147 114.481868,52.159118 113.254146,52.2797715 C113.057772,52.293693 112.96809,52.4530175 112.96809,52.592233 C112.96809,52.7438233 113.070142,52.9046946 113.292802,52.9046946 C113.41341,52.9046946 113.880377,52.8474615 114.857607,52.6355445 L114.869977,54.2782881 L113.076327,54.2674602 C112.872222,54.2674602 112.763985,54.4221441 112.763985,54.5690939 C112.763985,54.722231 112.870676,54.8800086 113.076327,54.8800086 L114.882347,54.8691808 L114.882347,55.175455 C114.234468,56.4701596 113.217036,57.6736007 112.542871,58.2474782 C112.46092,58.317086 112.414532,58.4068026 112.414532,58.4934257 C112.414532,58.6759527 112.598536,58.8414645 112.799548,58.8414645 C112.898508,58.8414645 112.999015,58.7966062 113.080966,58.7146237 C113.680911,58.11445 114.386001,57.1817058 114.893171,56.3185693 L114.845237,60.9003079 C114.845237,61.1075844 115.026148,61.2019416 115.194689,61.2019416 C115.36323,61.2019416 115.542595,61.0952097 115.542595,60.9003079 C115.542595,60.8709179 115.507032,57.8468468 115.507032,56.061794 L115.507032,54.8691808 Z" id="Fill-12" fill="#5E89BB"></path>
                        <g id="Group-16" transform="translate(116.914583, 51.147640)">
                            <mask id="mask-4" fill="white">
                                <use xlink:href="#path-3"></use>
                            </mask>
                            <g id="Clip-15"></g>
                            <path d="M5.69854872,6.54328569 L4.46928019,6.55720725 L4.46464144,5.09853762 L4.47855769,0.470393887 C4.47855769,0.247649001 4.30383147,0.145557595 4.14147525,0.145557595 C3.97911903,0.145557595 3.80439281,0.247649001 3.80439281,0.470393887 L3.81985531,5.09853762 L3.81521656,6.56339461 L3.46267162,6.56648829 L1.02114332,6.54792621 C0.823223351,6.54792621 0.733540867,6.72271907 0.733540867,6.88513722 C0.733540867,6.9903223 0.769104611,7.08622635 0.832500849,7.14655309 C0.88198084,7.19295828 0.945377079,7.21770771 1.02268956,7.21306719 L3.46267162,7.1975988 L3.81367031,7.20069247 L3.80439281,9.76535234 C3.80439281,9.96334779 3.97911903,10.0546113 4.14147525,10.0546113 C4.30383147,10.0546113 4.47855769,9.96334779 4.47855769,9.76535234 L4.47082644,7.20687983 L5.69854872,7.21770771 C5.89646868,7.21770771 5.98769742,7.04136801 5.98769742,6.8804967 C5.98769742,6.71807856 5.89646868,6.54328569 5.69854872,6.54328569" id="Fill-14" fill="#5E89BB" mask="url(#mask-4)"></path>
                        </g>
                        <path d="M116.824436,55.9009227 C116.487354,55.6735373 116.136355,55.4956507 116.046673,55.4894634 C115.938435,55.4817292 115.867308,55.5265875 115.827105,55.5652585 C115.768348,55.6193979 115.731238,55.7013804 115.731238,55.7787224 C115.731238,55.8560643 115.766802,55.9194848 115.839475,55.9674368 C115.992554,56.0587003 116.521372,56.3881771 116.904841,56.852229 C116.974423,56.9496799 117.07029,56.9697888 117.139871,56.9697888 C117.316144,56.9697888 117.475408,56.7980896 117.475408,56.6093752 C117.475408,56.3788961 117.068744,56.0648877 116.824436,55.9009227" id="Fill-17" fill="#5E89BB"></path>
                        <path d="M118.427434,54.6335971 C118.244976,54.6335971 118.077981,54.7650785 118.077981,54.9104814 C118.077981,54.990917 118.11973,55.0574311 118.207866,55.1208515 C118.450627,55.3002849 119.04748,55.7643368 119.395386,56.2361228 C119.471152,56.339761 119.562381,56.3908068 119.667526,56.3908068 C119.849983,56.3908068 120.015432,56.2082797 120.015432,56.0071906 C120.015432,55.5926376 118.674833,54.6335971 118.427434,54.6335971" id="Fill-19" fill="#5E89BB"></path>
                        <path d="M120.134493,54.0021772 C120.134493,53.5891711 118.793895,52.6301306 118.546495,52.6301306 C118.364037,52.6301306 118.198589,52.761612 118.198589,52.9070149 C118.198589,52.9874505 118.238791,53.0555115 118.328474,53.1189319 C118.568142,53.2968184 119.166541,53.7608703 119.514447,54.2326563 C119.590213,54.3362946 119.682988,54.3873403 119.785041,54.3873403 C119.969045,54.3873403 120.134493,54.2032664 120.134493,54.0021772" id="Fill-21" fill="#5E89BB"></path>
                        <path d="M113.135548,40.991401 L122.317179,40.991401 C122.508914,40.991401 122.595504,40.8351702 122.595504,40.6913141 C122.595504,40.547458 122.499637,40.4020551 122.317179,40.4020551 L118.202609,40.4144298 L118.213433,39.3053459 L120.415292,39.3053459 C120.614758,39.3053459 120.704441,39.1553025 120.704441,39.0176338 C120.704441,38.8784182 120.614758,38.7283748 120.415292,38.7283748 L118.213433,38.7283748 L118.213433,37.7399444 C118.213433,37.5079185 118.044891,37.4042802 117.87635,37.4042802 C117.71554,37.4042802 117.528444,37.4909032 117.528444,37.7399444 L117.528444,40.4144298 L115.976009,40.4144298 L115.976009,38.7887015 C115.976009,38.5582225 115.795098,38.4514905 115.626557,38.4514905 C115.459562,38.4514905 115.291021,38.5675035 115.291021,38.7887015 L115.301844,40.4020551 L113.135548,40.4020551 C112.937629,40.4020551 112.83403,40.547458 112.83403,40.6913141 C112.83403,40.8351702 112.928351,40.991401 113.135548,40.991401" id="Fill-23" fill="#5E89BB"></path>
                        <path d="M114.820033,43.7905617 C114.820033,43.9297772 114.920539,44.0798207 115.109182,44.0798207 L117.502776,44.0643523 L117.504322,44.423219 L117.481129,46.5671386 C117.481129,46.7744151 117.64967,46.8672254 117.805841,46.8672254 C117.960466,46.8672254 118.118184,46.765134 118.118184,46.5671386 L118.093444,44.0643523 L120.357153,44.0798207 C120.547342,44.0798207 120.633932,43.9406051 120.633932,43.8013896 C120.633932,43.6637209 120.542703,43.5136774 120.344783,43.5136774 L118.105814,43.527599 L118.118184,41.7982324 C118.118184,41.5925028 117.949642,41.4981456 117.793471,41.4981456 C117.6373,41.4981456 117.481129,41.6017838 117.481129,41.7997793 L117.504322,43.527599 L115.109182,43.5136774 C114.92827,43.5136774 114.820033,43.6544398 114.820033,43.7905617" id="Fill-25" fill="#5E89BB"></path>
                        <path d="M121.920721,46.4945918 C121.931545,46.0057905 121.945461,45.2679481 121.945461,44.5084499 C121.945461,43.4565991 121.931545,42.4975586 121.908351,41.9422432 C121.894435,41.7024831 121.705792,41.6189537 121.548075,41.6189537 C121.390357,41.6189537 121.223362,41.7241388 121.223362,41.9190406 L121.223362,41.9329622 C121.241917,42.5052928 121.272842,43.6267514 121.272842,44.700258 C121.272842,45.3452901 121.258926,45.9470106 121.248102,46.3986877 C121.235732,46.9895804 120.897104,47.2912141 120.212115,47.3128699 C119.728139,47.331432 118.763279,47.3623687 117.721107,47.3623687 C116.750062,47.3623687 115.803757,47.3360725 115.182165,47.3128699 C114.509546,47.2803863 114.229675,47.003502 114.217305,46.3615636 L114.217305,45.2911507 C114.217305,43.8928078 114.23586,42.3475151 114.242045,41.9066659 L114.242045,41.8942912 C114.242045,41.6885615 114.073504,41.5942043 113.917332,41.5942043 C113.756522,41.5942043 113.59262,41.7009362 113.59262,41.9066659 C113.589527,42.2299553 113.583342,42.5671663 113.578704,42.9121116 C113.56788,43.6855313 113.557056,44.4837005 113.557056,45.2416518 C113.557056,45.6933289 113.557056,46.1218035 113.569426,46.5193412 C113.58025,47.4087739 114.042579,47.8790131 114.939403,47.9145904 C115.652225,47.9393399 116.683573,47.9501677 117.76904,47.9501677 C118.741631,47.9501677 119.683298,47.9393399 120.417766,47.9145904 C121.376441,47.8774663 121.897527,47.3855713 121.920721,46.4945918" id="Fill-27" fill="#5E89BB"></path>
                        <path d="M117.001946,44.4400796 C116.915356,44.4122365 116.844228,44.4277049 116.788563,44.4849379 C116.352521,44.908772 115.809787,45.293935 115.370652,45.4919304 L115.370652,45.4934773 C115.262415,45.5476167 115.220666,45.6203181 115.203657,45.6713638 C115.178917,45.7487058 115.191287,45.8384225 115.236129,45.920405 C115.282516,46.0008406 115.35519,46.0611674 115.437141,46.0874636 C115.469612,46.0967447 115.50363,46.102932 115.537647,46.102932 C115.608775,46.102932 115.681449,46.0828231 115.749484,46.0395116 C116.19635,45.7703615 117.108637,45.0108634 117.187496,44.7649159 C117.21069,44.6953081 117.199866,44.6226067 117.159663,44.5591862 C117.122553,44.5050469 117.065342,44.4617353 117.001946,44.4400796" id="Fill-29" fill="#5E89BB"></path>
                        <path d="M115.929776,42.3962406 C116.362726,42.6607501 116.501889,42.7844973 116.859072,43.2237997 C116.897729,43.2748454 116.948755,43.2995948 117.012151,43.2995948 C117.027614,43.2995948 117.046169,43.298048 117.064724,43.2949543 C117.197701,43.2686581 117.318309,43.1495514 117.28893,42.9948675 C117.23945,42.7319048 116.764751,42.2044325 116.372004,41.8981583 C116.280775,41.8254568 116.167899,41.7929732 116.067393,41.8130821 C115.982349,41.8300973 115.90349,41.881143 115.847825,41.9553913 C115.793706,42.0296396 115.770513,42.1178095 115.785975,42.1966983 C115.796799,42.2492908 115.82927,42.3266328 115.929776,42.3962406" id="Fill-31" fill="#5E89BB"></path>
                        <path d="M118.608654,43.3071744 C118.625663,43.3071744 118.642671,43.3056275 118.661226,43.3025338 C118.924089,43.2453008 119.43899,42.7595932 119.737416,42.3620554 C119.808544,42.2661514 119.837923,42.1563258 119.816275,42.0542344 C119.79772,41.970705 119.745148,41.8918162 119.669381,41.8392237 C119.593615,41.7866311 119.505479,41.7649754 119.425074,41.7819906 C119.372501,41.7928185 119.296735,41.8283958 119.230246,41.9289404 C118.975115,42.3697896 118.856054,42.5090052 118.423104,42.8756061 C118.359708,42.9266518 118.33806,42.9962596 118.356615,43.0828826 C118.382902,43.2019893 118.480315,43.3071744 118.608654,43.3071744" id="Fill-33" fill="#5E89BB"></path>
                        <path d="M118.759568,44.4054304 C118.694625,44.399243 118.634322,44.4162583 118.584842,44.4564761 C118.526084,44.5013344 118.485882,44.5755827 118.478151,44.6513779 C118.468873,44.7426414 118.496706,44.8091555 118.564741,44.852467 C119.064179,45.198959 119.548155,45.6552767 119.828027,46.0450802 L119.829573,46.0466271 C119.905339,46.1409843 119.984198,46.1672806 120.038316,46.1734679 C120.047594,46.1750148 120.056871,46.1765616 120.067695,46.1765616 C120.226959,46.1765616 120.380038,46.0342524 120.400139,45.8625532 C120.410963,45.7604618 120.37076,45.6537299 120.291901,45.5671068 C119.940903,45.1819438 119.016245,44.4363672 118.759568,44.4054304" id="Fill-35" fill="#5E89BB"></path>
                        <path d="M75.8747038,2.13463849 C75.5855551,2.13463849 75.4402077,1.89487837 75.4402077,1.64119669 C75.4402077,1.38751502 75.5855551,1.14620806 75.8747038,1.14620806 L75.8870738,1.14620806 C77.1890161,1.16941065 78.7924771,1.18178536 80.3108943,1.18178536 C81.6731403,1.18178536 82.9627125,1.16941065 83.8920086,1.14620806 L83.9043786,1.14620806 C84.2058973,1.14620806 84.3620685,1.38751502 84.3620685,1.64119669 C84.3620685,1.88250365 84.2058973,2.13463849 83.9043786,2.13463849 L83.8920086,2.13463849 C83.3972087,2.12226377 82.8792151,2.10988905 82.4091551,2.10988905 C81.6855103,2.10988905 81.0592791,2.12226377 80.7577604,2.13463849 C80.5644792,2.13463849 80.5289155,2.2800414 80.5289155,2.49659892 C80.5289155,2.78585791 80.6015892,2.9420887 80.8659979,3.19731721 C81.8308578,4.11304618 83.5069925,5.63358939 84.1687873,6.13940591 C84.3017648,6.23530995 84.3620685,6.36833815 84.3620685,6.50136634 C84.3620685,6.79062533 84.1208536,7.0675096 83.8440749,7.0675096 C83.6152299,7.0675096 83.6028599,7.05668172 80.3356343,3.90731653 C80.2505905,3.83616192 80.1918331,3.78666305 80.1423531,3.78666305 C80.0820493,3.78666305 80.0341156,3.8237872 79.9614418,3.89648866 C78.8280408,5.00557257 77.1410824,6.81382792 76.3818737,7.56249823 C76.27209,7.67077699 76.1514825,7.71872902 76.0185051,7.71872902 C75.7293564,7.71872902 75.4525777,7.45267263 75.4525777,7.15258577 C75.4525777,7.01955757 75.5005114,6.87415466 75.6458589,6.7426733 C76.525675,5.93367625 78.2744834,4.23369966 79.3955144,3.20814509 C79.5145757,3.09986632 79.6119894,2.9188861 79.6119894,2.59404981 C79.6119894,2.18259051 79.6119894,2.13463849 79.4187082,2.13463849 C79.0939957,2.12226377 78.3935446,2.10988905 77.5384685,2.10988905 C77.0204749,2.10988905 76.4530012,2.10988905 75.8870738,2.13463849 L75.8747038,2.13463849 Z" id="Fill-37" fill="#5E89BB"></path>
                        <path d="M75.9231014,13.4610612 C75.6092128,13.4610612 75.4530415,13.2073796 75.4530415,12.9552447 C75.4530415,12.6891883 75.6092128,12.4355067 75.9231014,12.4355067 L75.9354714,12.4355067 C77.3332812,12.4602561 78.8764384,12.4834587 80.3840319,12.4834587 C81.6133004,12.4834587 82.8193752,12.471084 83.8801025,12.4355067 C83.9527762,12.4355067 84.3625324,12.4231319 84.3625324,12.9552447 C84.3625324,13.2073796 84.2171849,13.4610612 83.9156663,13.4610612 L83.9048425,13.4610612 C82.8317452,13.4363118 81.6133004,13.4254839 80.3469219,13.4254839 C78.8888084,13.4254839 77.3703912,13.4363118 75.9354714,13.4610612 L75.9231014,13.4610612 Z" id="Fill-39" fill="#5E89BB"></path>
                        <path d="M75.9108861,18.952032 C77.3581758,18.9752346 81.7093225,18.9628599 82.988071,18.9984372 C83.8323234,19.0231866 84.3255771,19.5661273 84.375057,20.4834031 C84.3858808,20.6999606 84.3982508,21.3635548 84.3982508,22.0147742 C84.3982508,22.6659936 84.3858808,23.317213 84.375057,23.510568 C84.350317,23.8230296 84.1446658,23.9808072 83.9281909,23.9808072 C83.7117159,23.9808072 83.4813247,23.799827 83.4813247,23.4749907 L83.4813247,23.462616 C83.4813247,23.2940104 83.4936947,22.3040332 83.4936947,21.5321603 C83.4936947,20.3751243 83.4936947,19.9884145 82.8071598,19.9280877 C82.5056411,19.9033383 81.5778913,19.915713 80.8666164,19.9033383 C80.6609652,19.9033383 80.6609652,19.9280877 80.6609652,21.4238815 C80.6609652,22.0039463 80.6609652,22.5932922 80.6733352,22.8237712 C80.696529,23.2940104 80.2991428,23.3048383 80.2280153,23.3048383 C79.9976241,23.3048383 79.7440391,23.1362328 79.7440391,22.8345991 L79.7440391,22.7990218 C79.7687791,22.4618108 79.7811491,21.785842 79.7811491,21.1825746 C79.7811491,19.9280877 79.7564091,19.8909636 79.5631279,19.8909636 C78.8410293,19.8909636 77.2128283,19.9033383 76.368576,19.9033383 L75.8985161,19.9033383 C75.6217374,19.8909636 75.4640199,19.6388288 75.4640199,19.3975218 C75.4640199,19.1685896 75.5969974,18.952032 75.8985161,18.952032 L75.9108861,18.952032 Z" id="Fill-41" fill="#5E89BB"></path>
                        <path d="M83.8921633,35.5957155 C82.8669997,35.5709661 82.0351173,35.561685 81.227975,35.561685 C80.5290701,35.561685 79.853359,35.5709661 79.0694104,35.5833408 C76.6464371,35.6312928 75.3444948,33.932863 75.3444948,32.0983114 C75.3444948,30.3859601 76.5381996,28.6844367 78.9488029,28.6844367 L79.0091066,28.6844367 C79.8054252,28.6968114 80.6249376,28.6968114 81.4568199,28.6968114 C82.2763323,28.6968114 83.1082146,28.6968114 83.8921633,28.672062 L83.9045333,28.672062 C84.2060519,28.672062 84.3498532,28.9149158 84.3498532,29.1685974 C84.3498532,29.4083576 84.2060519,29.6496645 83.9045333,29.6496645 L83.8921633,29.6496645 C83.4344733,29.6372898 82.9628672,29.6372898 82.5067235,29.6372898 C81.5171237,29.6372898 80.5414401,29.6496645 79.5518403,29.6496645 L78.9488029,29.6496645 C77.1644307,29.6496645 76.2846146,30.8577462 76.2846146,32.0751088 C76.2846146,33.3280488 77.2123645,34.6072851 79.0214766,34.6072851 C80.0945739,34.6072851 81.190865,34.6196598 82.2763323,34.6196598 C82.8190659,34.6196598 83.3617996,34.6196598 83.8921633,34.6072851 L83.9045333,34.6072851 C84.2168757,34.6072851 84.3622232,34.848592 84.3622232,35.089899 C84.3622232,35.3435806 84.2060519,35.5957155 83.9045333,35.5957155 L83.8921633,35.5957155 Z" id="Fill-43" fill="#5E89BB"></path>
                        <path d="M76.3691945,48.2015292 C75.7661571,48.2015292 75.4043347,47.7436647 75.4043347,47.2625976 C75.4043347,46.9362145 75.5620521,46.5974566 75.9223283,46.3685244 C77.2845743,45.5131221 81.8181785,43.0397258 82.9407558,42.3885064 C83.059817,42.3158049 83.1804245,42.2075262 83.1804245,42.12245 C83.1804245,41.9894218 83.047447,41.9894218 82.4088459,41.9894218 C81.0713399,41.9894218 77.1763368,42.0265459 75.8743946,42.0621233 L75.8620246,42.0621233 C75.5728759,42.0621233 75.4167047,41.8099884 75.4167047,41.5563067 C75.4290747,41.3026251 75.5728759,41.0504902 75.8620246,41.0504902 L75.8743946,41.0504902 C76.9830556,41.0752397 78.2262404,41.0860675 79.4555089,41.0860675 C80.8656887,41.0860675 82.2403047,41.0752397 83.301032,41.0504902 L83.3365957,41.0504902 C84.0617868,41.0504902 84.3741293,41.4604027 84.3741293,41.9058925 C84.3741293,42.2802276 84.1684781,42.6777654 83.7834619,42.9066976 C82.5418234,43.6553679 78.2865441,45.9818145 76.8995581,46.8867156 C76.7789507,46.9594171 76.7186469,47.0444932 76.7186469,47.10482 C76.7186469,47.2130987 76.8516244,47.2502229 77.2845743,47.2502229 C78.5277591,47.2502229 82.7474746,47.2130987 83.8793294,47.1775214 C84.1808481,47.1651467 84.3741293,47.3693295 84.3741293,47.6709632 C84.3741293,47.9370196 84.2055881,48.1891544 83.8916994,48.1891544 L83.8793294,48.1891544 C83.1201208,48.1659519 82.1073272,48.1535771 81.0465999,48.1535771 C79.3596415,48.1535771 77.5505293,48.1767797 76.3815645,48.2015292 L76.3691945,48.2015292 Z" id="Fill-45" fill="#5E89BB"></path>
                        <path d="M75.4284562,58.4433081 C75.4160862,58.2855304 75.4037162,57.5739843 75.4037162,56.8748128 C75.4037162,56.1632667 75.4160862,55.4640952 75.4284562,55.3078644 C75.5134999,54.2343578 75.9588198,53.654293 76.8386359,53.6187157 C77.3458058,53.5939663 78.2256219,53.5939663 79.1904817,53.5939663 C80.6254015,53.5939663 82.2396862,53.606341 82.9988948,53.6310904 C83.8431471,53.654293 84.3255771,54.1987805 84.375057,55.1160563 C84.3858808,55.331067 84.3982508,56.0194106 84.3982508,56.6814579 C84.3982508,57.3589736 84.3858808,58.0225677 84.375057,58.2035479 C84.350317,58.5283842 84.1446658,58.6722403 83.9281909,58.6722403 C83.7117159,58.6722403 83.4813247,58.5036348 83.4813247,58.1664238 C83.4813247,58.1308465 83.4936947,57.007841 83.4936947,56.1632667 C83.4936947,54.5963183 83.445761,54.5359915 82.2999899,54.5359915 L80.9501139,54.5359915 C80.708899,54.5359915 80.708899,54.5468194 80.708899,55.7425263 C80.708899,56.4540725 80.721269,57.3110216 80.733639,57.5987337 C80.7444627,57.8168381 80.6609652,58.1060971 80.2744028,58.1060971 C80.0455578,58.1060971 79.8058891,57.9374915 79.8058891,57.6234831 L79.8058891,57.586359 C79.8167129,57.2862721 79.8290829,56.8021114 79.8290829,56.2962949 C79.8290829,54.5236168 79.8167129,54.5112421 79.5878679,54.5112421 C77.526717,54.5112421 77.2731321,54.5236168 77.0195471,54.5468194 C76.5618572,54.5963183 76.3577522,54.8623747 76.3206423,55.4037685 C76.3082723,55.5971234 76.3082723,56.2607176 76.3082723,56.9243117 C76.3082723,57.586359 76.3082723,58.2499531 76.3206423,58.4680575 L76.3206423,58.5036348 C76.3206423,58.8052685 76.1041673,58.9754208 75.8861461,58.9754208 C75.6696711,58.9754208 75.4531962,58.8052685 75.4284562,58.4433081" id="Fill-47" fill="#5E89BB"></path>
                        <path d="M45.3983391,4.54708934 C45.3983391,4.46201317 45.4107091,4.07685014 45.4107091,3.69014027 C45.4107091,2.87031534 45.3735991,2.20672121 44.6391305,2.14639447 C44.1567005,2.11081716 42.8300183,2.07369301 41.565186,2.07369301 C40.5152825,2.07369301 39.4901189,2.09844244 38.9968652,2.14639447 C38.2484804,2.21909592 38.1649829,2.74966186 38.1649829,3.61743881 C38.1649829,5.11323259 38.1649829,7.8403106 41.8172247,7.8403106 C43.8907456,7.8403106 45.3504053,6.62140109 45.3983391,4.54708934 M37.2727968,3.72726442 C37.2727968,2.70325668 37.3562943,1.2662428 38.791214,1.16879191 C39.3818814,1.13476144 40.3714812,1.11001201 41.3827285,1.11001201 C42.7217808,1.11001201 44.1195906,1.14713616 44.7721079,1.18116663 C46.3152652,1.27861752 46.3152652,2.50990174 46.3152652,3.79996587 C46.3152652,4.16192631 46.3028952,4.51151203 46.2905252,4.69249225 C46.1219839,7.39327399 44.240198,8.84111575 41.8172247,8.84111575 C37.3083605,8.84111575 37.2727968,5.17355933 37.2727968,3.72726442" id="Fill-49" fill="#5E89BB"></path>
                        <path d="M37.3205759,17.6831596 C37.3082059,17.525382 37.2958359,16.8138358 37.2958359,16.1146644 C37.2958359,15.4031182 37.3082059,14.7039468 37.3205759,14.547716 C37.4056196,13.4742094 37.8509396,12.8941446 38.7307557,12.8585672 C39.2379256,12.8353647 40.1177417,12.8353647 41.0826015,12.8353647 C42.5175212,12.8353647 44.1318059,12.8461925 44.8910145,12.870942 C45.7352669,12.8941446 46.2176968,13.4386321 46.2671768,14.3559079 C46.2780005,14.5709186 46.2903705,15.2592621 46.2903705,15.9228563 C46.2903705,16.5988251 46.2780005,17.2624193 46.2671768,17.4433995 C46.2424368,17.7682358 46.0367856,17.9120918 45.8203106,17.9120918 C45.6038357,17.9120918 45.3734445,17.7434863 45.3734445,17.4062753 C45.3734445,17.370698 45.3858144,16.2476926 45.3858144,15.4031182 C45.3858144,13.8361698 45.3378807,13.7758431 44.1921097,13.7758431 L42.8422337,13.7758431 C42.6010187,13.7758431 42.6010187,13.7866709 42.6010187,14.9823779 C42.6010187,15.693924 42.6133887,16.5508731 42.6257587,16.8385852 C42.6365824,17.0566896 42.553085,17.3459486 42.1665225,17.3459486 C41.9376776,17.3459486 41.6980089,17.1773431 41.6980089,16.8633347 L41.6980089,16.8262105 C41.7088326,16.5261237 41.7212026,16.0419629 41.7212026,15.5361464 C41.7212026,13.7634683 41.7088326,13.7510936 41.4799877,13.7510936 C39.4188368,13.7510936 39.1652518,13.7634683 38.9116669,13.7866709 C38.453977,13.8361698 38.249872,14.1022262 38.212762,14.64362 C38.200392,14.8369749 38.200392,15.5005691 38.200392,16.1641632 C38.200392,16.8262105 38.200392,17.4898047 38.212762,17.707909 L38.212762,17.7434863 C38.212762,18.04512 37.996287,18.2152724 37.7782658,18.2152724 C37.5617909,18.2152724 37.3453159,18.04512 37.3205759,17.6831596" id="Fill-51" fill="#5E89BB"></path>
                        <path d="M38.2613142,29.0109745 C37.6582768,29.0109745 37.2964544,28.55311 37.2964544,28.0720429 C37.2964544,27.7456598 37.4541719,27.4069019 37.8144481,27.1779697 C39.1766941,26.3225675 43.7102983,23.8491711 44.8328755,23.1979517 C44.9519368,23.1252503 45.0725443,23.0169715 45.0725443,22.9318953 C45.0725443,22.7988671 44.9395668,22.7988671 44.3009656,22.7988671 C42.9634596,22.7988671 39.0684566,22.8359913 37.7665143,22.8715686 L37.7541443,22.8715686 C37.4649956,22.8715686 37.3088244,22.6194338 37.3088244,22.3657521 C37.3211944,22.1120704 37.4649956,21.8599356 37.7541443,21.8599356 L37.7665143,21.8599356 C38.8751754,21.884685 40.1183602,21.8955129 41.3476287,21.8955129 C42.7578084,21.8955129 44.1324244,21.884685 45.1931517,21.8599356 L45.2302617,21.8599356 C45.9539066,21.8599356 46.266249,22.269848 46.266249,22.7153378 C46.266249,23.089673 46.0605978,23.4872107 45.6755816,23.7161429 C44.4339431,24.4648133 40.1786639,26.7912598 38.7916779,27.6961609 C38.6710704,27.7688624 38.6107667,27.8539386 38.6107667,27.9142653 C38.6107667,28.0225441 38.7437442,28.0596682 39.1766941,28.0596682 C40.4198788,28.0596682 44.6395943,28.0225441 45.7714491,27.9869668 C46.0729678,27.974592 46.266249,28.1787749 46.266249,28.4804086 C46.266249,28.7464649 46.0977078,28.9985998 45.7838191,28.9985998 L45.7714491,28.9985998 C45.0122405,28.9753972 43.999447,28.9630225 42.9387196,28.9630225 C41.2517612,28.9630225 39.442649,28.9862251 38.2736842,29.0109745 L38.2613142,29.0109745 Z" id="Fill-53" fill="#5E89BB"></path>
                        <path d="M37.7909451,36.6591676 C37.4894264,36.6591676 37.3332552,36.3946581 37.3332552,36.1409764 C37.3332552,35.87492 37.4770564,35.6227852 37.7909451,35.6227852 L37.8033151,35.6227852 C38.7666286,35.6475346 40.6236746,35.6599093 42.2998093,35.6599093 C43.4208403,35.6599093 44.4691976,35.6599093 45.121715,35.6351599 C45.32582,35.6351599 45.32582,35.6351599 45.32582,34.8385376 C45.32582,34.3311742 45.30108,33.6923295 45.30108,33.1261863 C45.30108,32.7998031 45.5314712,32.6311976 45.7603161,32.6311976 C45.9767911,32.6311976 46.2056361,32.7998031 46.2056361,33.1138115 L46.2056361,33.1261863 C46.1948123,33.860935 46.1824423,35.1401713 46.1824423,36.3946581 C46.1824423,37.4310405 46.1948123,38.4565951 46.2056361,39.1557666 L46.2056361,39.1681413 C46.2056361,39.4589471 45.9767911,39.6151779 45.7479461,39.6028032 C45.5191012,39.6151779 45.30108,39.469775 45.30108,39.180516 L45.30108,39.1557666 C45.32582,38.7350262 45.32582,38.3359416 45.32582,37.9863559 C45.32582,37.4186658 45.31345,36.9979255 45.30108,36.8277731 C45.30108,36.6839171 45.2778862,36.6344182 45.121715,36.6344182 C44.4691976,36.6235903 43.6017515,36.6112156 42.6616317,36.6112156 C40.8896295,36.6112156 38.8872361,36.6344182 37.8033151,36.6591676 L37.7909451,36.6591676 Z" id="Fill-55" fill="#5E89BB"></path>
                        <path d="M41.4436508,47.505142 C42.5770518,47.1323537 44.3258603,46.5043369 44.9273514,46.3125288 C45.1098089,46.2506552 45.2056764,46.1671259 45.2056764,46.0820497 C45.2056764,45.9969735 45.1098089,45.9134442 44.9041577,45.828368 C44.2887503,45.6009826 41.4683908,44.6233801 41.3601533,44.6233801 C41.3230433,44.6233801 41.2998496,44.6589574 41.2998496,44.7316588 C41.2998496,44.971419 41.2874796,45.5514838 41.2874796,46.1191739 C41.2874796,46.6853171 41.2998496,47.2390856 41.2998496,47.4200659 C41.2998496,47.4927673 41.3230433,47.5298915 41.3601533,47.5298915 C41.383347,47.5298915 41.408087,47.5175167 41.4436508,47.505142 M37.3445428,49.3025695 C37.3445428,49.1092146 37.4419565,48.9158596 37.6708015,48.8199556 C38.0202539,48.6760995 39.1768487,48.2646402 40.2855097,47.8918519 C40.3705535,47.8671025 40.4308572,47.8315252 40.4308572,47.7232464 C40.4432272,47.5298915 40.4432272,46.9745761 40.4432272,46.3836834 C40.4432272,45.5762332 40.4432272,44.6713321 40.4308572,44.4176504 C40.4308572,44.3201995 40.3705535,44.2722475 40.2978797,44.2490449 L37.6939952,43.4152984 C37.4419565,43.3441438 37.3321728,43.139961 37.3321728,42.9342314 C37.3321728,42.6929244 37.4898903,42.4639922 37.754299,42.4639922 C37.8037789,42.4639922 37.8517127,42.4763669 37.8996464,42.4887416 C40.0690348,43.1631636 43.9161041,44.5630533 45.5674988,45.1415713 C46.0375587,45.3101768 46.2664037,45.6705904 46.2664037,46.0340977 C46.2664037,46.4316354 46.0128187,46.8183453 45.5427588,46.9869508 C43.3362604,47.7711984 39.0083075,49.3505215 38.0558177,49.760434 C37.9707739,49.7960113 37.8872764,49.808386 37.8146027,49.808386 C37.525454,49.808386 37.3445428,49.5547043 37.3445428,49.3025695" id="Fill-57" fill="#5E89BB"></path>
                        <path d="M46.2424368,54.0066631 C46.2424368,54.2587979 46.0738956,54.5124796 45.7352669,54.5124796 L45.6997031,54.5124796 C44.9528645,54.4769023 42.4695875,54.4397781 40.733149,54.4397781 C39.8997204,54.4397781 39.2379256,54.4521528 39.0090806,54.4645275 C38.3209995,54.5124796 38.3086295,54.8388627 38.3086295,56.599166 C38.3086295,57.3230869 38.3209995,58.1181624 38.3333695,58.3486415 L38.3333695,58.3965935 C38.3333695,58.6982272 38.1168945,58.8668327 37.8880496,58.8668327 C37.6576583,58.8668327 37.4288134,58.7106019 37.4056196,58.3362668 C37.3932496,58.1784891 37.3932496,57.4437404 37.3932496,56.7198195 C37.3932496,55.9958986 37.3932496,55.2719778 37.4056196,55.115747 C37.4891171,54.0314125 37.8756796,53.5240491 38.7910594,53.486925 C39.0446443,53.4745503 39.4312068,53.4745503 39.8997204,53.4745503 C41.5758551,53.4745503 44.2647834,53.5240491 45.4708582,53.5240491 L45.7476369,53.5240491 C46.0847193,53.5240491 46.2424368,53.7653561 46.2424368,54.0066631" id="Fill-59" fill="#5E89BB"></path>
                        <g id="Group-63" transform="translate(0.000000, 0.101937)">
                            <mask id="mask-6" fill="white">
                                <use xlink:href="#path-5"></use>
                            </mask>
                            <g id="Clip-62"></g>
                            <path d="M-0.000309249944,5.05986663 C-0.000309249944,2.14098053 2.2061891,0.645186748 4.46062119,0.645186748 C6.80009702,0.645186748 9.10246285,2.25080613 9.10246285,5.13256809 C9.10246285,7.00269702 8.01699555,8.23243441 7.49900189,8.23243441 C7.20985319,8.23243441 6.96863824,7.99267429 6.96863824,7.71424318 C6.96863824,7.56884027 7.04131198,7.41260948 7.1974832,7.29040916 C7.86082433,6.76139006 8.18553677,5.9168157 8.18553677,5.05986663 C8.18553677,2.93760286 6.39034084,1.64753873 4.53329493,1.64753873 C3.15867893,1.64753873 0.964550575,2.49211309 0.964550575,5.02428932 C0.964550575,6.0498439 1.37430675,7.08777319 2.13351536,7.64154173 C2.30205658,7.76219521 2.36236032,7.91997283 2.36236032,8.06228207 C2.36236032,8.35308789 2.11032162,8.631519 1.81962667,8.631519 C1.32637301,8.631519 -0.000309249944,7.21925455 -0.000309249944,5.05986663" id="Fill-61" fill="#5E89BB" mask="url(#mask-6)"></path>
                        </g>
                        <path d="M8.99407075,14.4760973 C8.99407075,14.7282321 8.82552953,14.9819138 8.48690084,14.9819138 L8.45133709,14.9819138 C7.70449848,14.9463365 5.22122143,14.9092124 3.48478299,14.9092124 C2.65135439,14.9092124 1.98955951,14.9215871 1.76071456,14.9339618 C1.07263343,14.9819138 1.06026343,15.3082969 1.06026343,17.0686003 C1.06026343,17.7925211 1.07263343,18.5875966 1.08500343,18.8180757 L1.08500343,18.8660277 C1.08500343,19.1676614 0.868528468,19.3362669 0.639683509,19.3362669 C0.409292301,19.3362669 0.180447342,19.1800362 0.157253597,18.805701 C0.144883599,18.6479234 0.144883599,17.9131746 0.144883599,17.1892537 C0.144883599,16.4653329 0.144883599,15.741412 0.157253597,15.5851812 C0.240751081,14.5008467 0.627313511,13.9934834 1.54269335,13.9563592 C1.7962783,13.9439845 2.18284073,13.9439845 2.65135439,13.9439845 C4.32748909,13.9439845 7.01641735,13.9934834 8.22249214,13.9934834 L8.49927084,13.9934834 C8.83635328,13.9934834 8.99407075,14.2347903 8.99407075,14.4760973" id="Fill-64" fill="#5E89BB"></path>
                        <path d="M0.566700522,25.560749 C0.252811829,25.560749 0.0966406075,25.3070674 0.0966406075,25.0549325 C0.0966406075,24.7888761 0.252811829,24.5351945 0.566700522,24.5351945 L0.57907052,24.5351945 C1.97688027,24.5599439 3.52003749,24.5831465 5.02763096,24.5831465 C6.25689949,24.5831465 7.46297427,24.5707718 8.52370158,24.5351945 C8.59637532,24.5351945 9.00613149,24.5228197 9.00613149,25.0549325 C9.00613149,25.3070674 8.86078402,25.560749 8.55926533,25.560749 L8.54844158,25.560749 C7.47534427,25.5359996 6.25689949,25.5251717 4.99052097,25.5251717 C3.53240749,25.5251717 2.01399026,25.5359996 0.57907052,25.560749 L0.566700522,25.560749 Z" id="Fill-66" fill="#5E89BB"></path>
                        <path d="M1.01294819,38.6364925 C0.409910801,38.6364925 0.0480883663,38.1786281 0.0480883663,37.697561 C0.0480883663,37.3711778 0.205805838,37.03242 0.566082023,36.8034878 C1.92832803,35.9480855 6.46193221,33.4746892 7.5845095,32.8234698 C7.70357073,32.7507683 7.82417821,32.6424895 7.82417821,32.5574134 C7.82417821,32.4243852 7.69120073,32.4243852 7.0525996,32.4243852 C5.71509359,32.4243852 1.82009055,32.4615093 0.518148281,32.4970866 L0.505778283,32.4970866 C0.216629586,32.4970866 0.0604583641,32.2449518 0.0604583641,31.9912701 C0.0728283618,31.7375884 0.216629586,31.4854536 0.505778283,31.4854536 L0.518148281,31.4854536 C1.62680933,31.510203 2.86999411,31.5210309 4.09926263,31.5210309 C5.50944238,31.5210309 6.88405838,31.510203 7.94478569,31.4854536 L7.98189568,31.4854536 C8.70554055,31.4854536 9.01788299,31.8953661 9.01788299,32.3408558 C9.01788299,32.715191 8.81223178,33.1127287 8.4272156,33.341661 C7.18557707,34.0903313 2.93029784,36.4167779 1.54331185,37.321679 C1.42270437,37.3943804 1.36240063,37.4794566 1.36240063,37.5397833 C1.36240063,37.6480621 1.4953781,37.6851863 1.92832803,37.6851863 C3.1715128,37.6851863 7.39122829,37.6480621 8.52308308,37.6124848 C8.82460178,37.6001101 9.01788299,37.8042929 9.01788299,38.1059266 C9.01788299,38.371983 8.84934177,38.6241178 8.53545308,38.6241178 L8.52308308,38.6241178 C7.76387447,38.6009152 6.7510809,38.5885405 5.69035359,38.5885405 C4.00339515,38.5885405 2.19428298,38.6117431 1.02531819,38.6364925 L1.01294819,38.6364925 Z" id="Fill-68" fill="#5E89BB"></path>
                        <path d="M0.566700522,45.586597 C0.252811829,45.586597 0.0966406075,45.3329153 0.0966406075,45.0807805 C0.0966406075,44.8147241 0.252811829,44.5610424 0.566700522,44.5610424 L0.57907052,44.5610424 C1.97688027,44.5857919 3.52003749,44.6089945 5.02763096,44.6089945 C6.25689949,44.6089945 7.46297427,44.5966197 8.52370158,44.5610424 C8.59637532,44.5610424 9.00613149,44.5486677 9.00613149,45.0807805 C9.00613149,45.3329153 8.86078402,45.586597 8.55926533,45.586597 L8.54844158,45.586597 C7.47534427,45.5618476 6.25689949,45.5510197 4.99052097,45.5510197 C3.53240749,45.5510197 2.01399026,45.5618476 0.57907052,45.586597 L0.566700522,45.586597 Z" id="Fill-70" fill="#5E89BB"></path>
                        <g id="Group-74" transform="translate(0.000000, 51.147640)">
                            <mask id="mask-8" fill="white">
                                <use xlink:href="#path-7"></use>
                            </mask>
                            <g id="Clip-73"></g>
                            <path d="M-0.000309249944,4.42550776 C-0.000309249944,1.50662166 2.2061891,0.0108278764 4.46062119,0.0108278764 C6.80009702,0.0108278764 9.10246285,1.61644726 9.10246285,4.49820921 C9.10246285,6.36833815 8.01699555,7.59807554 7.49900189,7.59807554 C7.20985319,7.59807554 6.96863824,7.35831542 6.96863824,7.07988431 C6.96863824,6.9344814 7.04131198,6.77825061 7.1974832,6.65605029 C7.86082433,6.12703119 8.18553677,5.28245683 8.18553677,4.42550776 C8.18553677,2.30324399 6.39034084,1.01317986 4.53329493,1.01317986 C3.15867893,1.01317986 0.964550575,1.85775422 0.964550575,4.38993045 C0.964550575,5.41548503 1.37430675,6.45341432 2.13351536,7.00718286 C2.30205658,7.12783633 2.36236032,7.28561396 2.36236032,7.42792319 C2.36236032,7.71872902 2.11032162,7.99716012 1.81962667,7.99716012 C1.32637301,7.99716012 -0.000309249944,6.58489568 -0.000309249944,4.42550776" id="Fill-72" fill="#5E89BB" mask="url(#mask-8)"></path>
                        </g>
                    </g>
                </g>
            </g>
        </g>
    </g>
</svg>