<?xml version="1.0" encoding="UTF-8"?>
<svg width="536px" height="124px" viewBox="0 0 536 124" version="1.1" xmlns="http://www.w3.org/2000/svg" xmlns:xlink="http://www.w3.org/1999/xlink">
    <!-- Generator: Sketch 49.1 (51147) - http://www.bohemiancoding.com/sketch -->
    <title>txt-copy</title>
    <desc>Created with Sketch.</desc>
    <defs>
        <polygon id="path-1" points="10.2788355 0.524845771 10.2788355 8.54897676 0.776728125 8.54897676 0.776728125 0.524845771 10.2788355 0.524845771"></polygon>
        <polygon id="path-3" points="10.7761789 10.903998 0.421015479 10.903998 0.421015479 0.549076878 10.7761789 0.549076878 10.7761789 10.903998"></polygon>
    </defs>
    <g id="Page-1" stroke="none" stroke-width="1" fill="none" fill-rule="evenodd">
        <g id="180406_kifune_clinic" transform="translate(-123.000000, -1057.000000)">
            <g id="Group-8" transform="translate(122.500000, 1057.000000)">
                <polygon id="Line-2" fill="#7392B7" fill-rule="nonzero" points="5.5 124 442.5 124 442.5 123 5.5 123"></polygon>
                <g id="Group-17" transform="translate(2.212746, 45.115897)" fill="#7392B7" fill-rule="nonzero">
                    <polygon id="Line-2" points="1.28725401 0.884103208 534.287254 0.884103208 534.287254 -0.115896792 1.28725401 -0.115896792"></polygon>
                </g>
                <g id="Page-1" transform="translate(0.583828, 0.253675)">
                    <path d="M20.799982,15.465625 C20.799982,18.4690707 20.8448095,21.2483786 20.8896371,22.8621703 C20.9344646,24.6552722 21.5172228,25.3276854 24.6103235,25.3276854 C27.2999764,25.3276854 28.5987637,24.9690651 28.6448028,22.9069979 C28.6896303,21.3828613 28.7344579,18.5587258 28.7344579,15.465625 L20.799982,15.465625 Z M35.3241073,33.889747 C35.9965206,33.889747 36.3563525,34.4276776 36.3563525,34.9656081 C36.3563525,35.5483662 35.951693,36.1311244 35.1896247,36.1759519 C31.6918645,36.3552621 27.7470403,36.4000896 23.9827379,36.4000896 C20.5298052,36.4000896 17.2149898,36.3552621 14.5689529,36.2207795 C10.6253403,36.0414693 8.51602245,34.3380225 8.42879047,30.5276809 C8.38396292,28.9587168 8.38396292,27.0311322 8.38396292,24.87941 C8.38396292,21.9656194 8.38396292,18.6932084 8.42879047,15.465625 L1.92879609,15.5104526 C1.12190024,15.5104526 0.762068306,14.972522 0.762068306,14.4345914 C0.762068306,13.8518333 1.16672779,13.2690752 1.92879609,13.2690752 L8.42879047,13.3139027 C8.4711949,9.77252649 8.51602245,6.45528798 8.51602245,3.98977287 C8.51602245,3.27253212 9.14603122,2.91391174 9.77240533,2.91391174 C10.3551634,2.91391174 10.9815376,3.27253212 10.9815376,3.94494533 C10.9815376,6.36563289 10.93671,9.72769894 10.8918825,13.3139027 L18.5137771,13.3139027 L18.5137771,2.64494645 C18.5137771,1.97253324 19.1413627,1.61391286 19.7677368,1.61391286 C20.3529181,1.61391286 20.8896371,1.92770569 20.8896371,2.55529136 L20.8896371,2.6001189 C20.8448095,4.88632382 20.799982,9.14494082 20.799982,13.3139027 L28.7344579,13.3139027 C28.7344579,9.5035612 28.6896303,5.51390949 28.6896303,3.00356683 C28.6896303,2.33115362 29.2711769,1.97253324 29.8563581,1.97253324 C30.4379047,1.97253324 31.0206628,2.33115362 31.0206628,3.00356683 C31.0206628,5.60356458 31.0654903,9.5035612 31.0654903,13.3139027 L38.7770401,13.2690752 C39.5839359,13.2690752 39.9861723,13.8518333 39.9861723,14.3897639 C39.9861723,14.972522 39.5839359,15.5104526 38.7770401,15.5104526 L31.0654903,15.465625 C31.0654903,18.6483809 31.0206628,21.606999 30.9746237,23.4449284 C30.8849686,27.0311322 28.1068722,27.3000975 25.0598106,27.3000975 C21.4275677,27.3000975 18.6046437,27.25527 18.5137771,23.4449284 L18.5137771,15.465625 L10.849478,15.465625 C10.849478,17.9311401 10.8046505,20.3966552 10.8046505,22.6380326 C10.8046505,25.865616 10.849478,28.6449239 10.8918825,30.3035432 C11.0275767,34.1587123 13.31257,34.2035398 21.786188,34.2035398 C26.2241152,34.2035398 31.2448005,34.0690572 35.2792798,33.889747 L35.3241073,33.889747 Z" id="Fill-1" fill="#295282"></path>
                    <path d="M55.5423005,23.758479 C55.5423005,26.8067522 57.3790184,29.5860601 59.1721203,29.5860601 C62.2203935,29.5860601 67.7790094,18.8274488 68.4078066,11.2964208 C68.450211,10.7584902 68.5859052,10.3998698 68.8548705,10.1757321 C60.4285031,10.982628 55.5423005,18.1550355 55.5423005,23.758479 M70.9617652,11.2515932 C70.9617652,15.4205551 65.0457405,32.275713 59.0376376,32.275713 C56.7066051,32.275713 53.211268,29.2274397 53.211268,23.9377892 C53.211268,16.8102091 59.4871246,8.11366492 70.3790071,8.11366492 C78.0881337,8.11366492 84.8583049,13.0446951 84.8583049,20.9343435 C84.8583049,31.9619201 72.6203845,35.5481239 71.0514203,35.5481239 C70.0640027,35.5481239 69.5272837,34.9205383 69.5272837,34.2929526 C69.5272837,33.755022 69.9319432,33.1722639 70.8708986,32.9929537 C76.923829,31.6929549 82.3031347,27.5239929 82.3031347,20.7550333 C82.3031347,14.4791767 76.7445188,10.086077 70.3341796,10.086077 C70.738839,10.3102147 70.9617652,10.7136627 70.9617652,11.2515932" id="Fill-3" fill="#295282"></path>
                    <path d="M117.852107,22.4587224 C121.347444,22.4587224 124.843993,22.3690673 127.892266,22.2345847 C129.821062,22.1449296 130.985367,21.0690684 131.030194,19.3656216 C131.075022,18.4242431 131.075022,17.2138994 131.075022,16.0035556 C131.075022,12.4621793 130.985367,10.8932152 127.847438,10.7587325 C125.069342,10.6690774 121.481927,10.6242499 117.852107,10.6242499 L117.852107,22.4587224 Z M115.476247,10.6242499 C111.799176,10.6242499 108.259012,10.6690774 105.52332,10.7587325 C103.507292,10.8035601 102.430219,12.193214 102.340564,13.6276956 C102.295736,14.3897639 102.295736,15.4207975 102.295736,16.4966586 C102.295736,20.8001031 102.476258,22.100102 105.568147,22.2345847 C108.438322,22.3690673 111.888831,22.4587224 115.476247,22.4587224 L115.476247,10.6242499 Z M115.476247,24.7000998 C111.799176,24.6552722 108.169356,24.5656171 104.671596,24.4311345 C101.71419,24.3414794 100.100398,22.5035499 100.009531,20.3070001 C99.9647038,19.0070013 99.9198762,17.7070024 99.9198762,16.4070035 C99.9198762,15.1070046 99.9647038,13.8518333 100.009531,12.7311446 C100.100398,10.713905 101.669362,8.6518378 104.581941,8.56218271 C107.988835,8.47252761 111.711944,8.42770007 115.476247,8.42770007 L115.431419,1.07598229 C115.431419,0.358741535 116.059005,0.000121155533 116.640551,0.000121155533 C117.27056,0.000121155533 117.896934,0.358741535 117.896934,1.07598229 L117.852107,8.42770007 C121.662448,8.42770007 125.516406,8.47252761 129.058994,8.56218271 C131.614164,8.60701026 133.273995,10.4897672 133.406054,12.4173518 C133.495709,13.582868 133.495709,14.9276944 133.495709,16.2725209 C133.495709,17.6173473 133.495709,19.0070013 133.406054,20.2621726 C133.318822,22.3690673 131.569336,24.2966518 128.788817,24.4311345 C125.203825,24.6104447 121.481927,24.7000998 117.852107,24.7000998 L117.896934,37.8345712 C117.896934,38.5069844 117.27056,38.8656047 116.640551,38.8656047 C116.059005,38.8656047 115.431419,38.5069844 115.431419,37.8345712 L115.476247,24.7000998 Z" id="Fill-5" fill="#295282"></path>
                    <path d="M181.636255,22.368825 C180.60401,19.6343446 177.871952,16.0033133 174.148843,13.9860736 C173.791434,13.8067634 173.656951,13.4929706 173.656951,13.1791778 C173.656951,12.6412472 174.104015,12.1033166 174.823679,12.1033166 C176.705224,12.1033166 184.10177,18.8274488 184.10177,21.8308944 C184.10177,22.6826178 183.475396,23.2653759 182.802982,23.2653759 C182.353495,23.2653759 181.861604,22.9964107 181.636255,22.368825 Z M155.547834,16.4964163 C153.708693,16.720554 152.005246,16.8550367 150.883346,16.8550367 C150.078873,16.8550367 149.674213,16.2722785 149.674213,15.734348 C149.674213,15.1515899 150.078873,14.5688317 150.840941,14.5240042 C152.32025,14.4791767 153.708693,14.4791767 155.367312,14.344694 L158.281102,14.0309012 C158.865072,11.9240065 159.582313,8.74125059 160.029377,5.82746001 C160.119032,5.0653917 160.746618,4.70677132 161.328164,4.70677132 C161.958173,4.70677132 162.584547,5.1550468 162.584547,5.9171151 C162.584547,6.58952831 161.732824,11.0722831 160.8811,13.7619359 C164.37886,13.4481431 164.423688,13.4481431 164.555748,13.4481431 C167.381095,13.4481431 169.801782,14.837797 169.801782,19.8584823 C169.801782,27.120545 167.693676,34.6964005 161.10645,34.6964005 C159.939722,34.6964005 157.027143,34.4274352 157.027143,32.8584711 C157.027143,32.275713 157.519034,31.6929549 158.236275,31.6929549 C158.370758,31.6929549 158.50524,31.6929549 158.640934,31.7377824 C159.537485,32.0067477 160.389209,32.1412303 161.196105,32.1412303 C166.709893,32.1412303 167.381095,23.3998586 167.381095,20.1722752 C167.381095,17.3033121 166.844376,15.5998653 164.153511,15.5998653 C163.48231,15.5998653 162.270754,15.6895204 160.299554,15.9136582 C158.058176,23.0860658 154.962652,29.4067499 151.37766,34.4722628 C150.928173,35.0998485 150.346627,35.3688137 149.763868,35.3688137 C149.047839,35.3688137 148.465081,34.9205383 148.465081,34.2481251 C148.465081,33.8446771 148.64318,33.4412292 149.047839,32.9481262 C152.139728,29.4515775 155.503006,22.9067556 157.698344,16.227451 L155.547834,16.4964163 Z" id="Fill-7" fill="#295282"></path>
                    <path d="M208.714032,9.27954462 C208.534722,9.32437217 208.399027,9.36919972 208.219717,9.36919972 C207.502476,9.36919972 207.055413,8.7864416 207.055413,8.24851103 C207.055413,7.88989065 207.187472,7.57609782 207.592132,7.44161518 C208.758859,6.99333971 209.295578,6.67954687 209.295578,6.32092649 C209.295578,6.00713366 208.846091,5.69334083 207.994368,5.15541026 C204.769208,3.09334308 204.54507,2.95886044 204.54507,2.24161968 C204.54507,1.65886156 205.036961,1.21058609 205.709375,1.21058609 C206.023167,1.21058609 206.382999,1.34506873 206.695581,1.56920647 C207.547304,2.19679213 208.846091,3.00368799 209.923164,3.63127365 C211.221951,4.4381695 212.790915,5.42437555 212.835743,6.50023668 C212.835743,7.75540801 212.388679,8.20368348 208.714032,9.27954462 M208.399027,38.2381402 C207.457649,38.2381402 206.92093,37.6105546 206.92093,36.9829689 C206.92093,36.4002108 207.323166,35.8174527 208.309372,35.6381425 C210.73006,35.1450395 213.195575,34.4277987 214.764539,33.5312478 C219.201255,30.93125 221.130051,27.9726319 221.130051,25.6415994 C221.130051,22.9519466 218.799018,21.920913 216.288676,21.920913 C211.581783,21.920913 206.067995,25.4174617 203.692135,27.4795289 C202.840412,28.2415972 202.078343,28.6002176 201.451969,28.6002176 C200.195586,28.6002176 199.38869,27.5243564 199.38869,24.1622904 C199.38869,22.3691885 199.612828,20.3519488 199.79335,18.8726398 C200.150759,15.9588492 200.734728,13.0450586 201.04731,11.0726465 C201.136965,10.3554058 201.76455,9.99678538 202.303693,9.99678538 C202.840412,9.99678538 203.378342,10.3554058 203.378342,11.027819 L203.378342,11.2519567 C203.110588,13.1795412 202.571446,15.8243665 202.214037,18.0209164 C201.943861,19.8140183 201.673684,21.6967753 201.673684,23.1760843 C201.673684,23.8933251 201.673684,25.1933239 202.214037,25.1933239 C202.435752,25.1933239 202.795584,24.9691862 203.19782,24.7002209 C207.055413,22.3243609 211.671438,19.7243632 216.423158,19.7243632 C220.995568,19.7243632 223.73126,22.2347058 223.73126,25.5967719 C223.73126,28.6450451 221.489883,32.3657315 216.423158,35.4588323 C214.002471,36.9381414 209.652987,38.2381402 208.399027,38.2381402" id="Fill-9" fill="#295282"></path>
                    <path d="M251.298384,38.7313644 C250.940976,38.7313644 250.536316,38.5520542 250.266139,38.1486063 C248.967352,36.1761942 245.965118,33.9348168 243.768568,32.8141282 C243.319081,32.5899904 243.094943,32.1865425 243.094943,31.8279221 C243.094943,31.245164 243.54443,30.7072334 244.26046,30.7072334 C245.739769,30.7072334 252.599595,35.4141259 252.599595,37.4761931 C252.599595,38.2382614 251.970798,38.7313644 251.298384,38.7313644" id="Fill-11" fill="#295282"></path>
                    <path d="M304.554722,20.7555179 C304.554722,17.3486243 304.509895,13.9865583 304.42024,11.3865605 C304.329373,8.78656276 303.253512,7.93483936 300.787997,7.89001181 C298.054728,7.80035671 294.736278,7.80035671 291.463867,7.80035671 C288.191456,7.80035671 284.919045,7.80035671 282.275431,7.89001181 C279.809916,7.93483936 278.643188,9.01070049 278.553533,11.3865605 C278.463878,14.3003511 278.374223,18.0210375 278.374223,21.5624138 C278.374223,24.3417217 278.419051,27.0313745 278.508706,29.1382693 C278.643188,32.9486108 280.527157,32.9486108 291.151286,32.9486108 C294.377658,32.9486108 297.650068,32.9037833 300.520243,32.7693006 C303.343167,32.634818 304.329373,31.4693017 304.42024,28.9589591 C304.509895,26.5830991 304.554722,23.6693085 304.554722,20.7555179 M301.416794,35.010678 C298.099556,35.1451606 294.556968,35.1899882 291.106458,35.1899882 C287.923702,35.1899882 284.740946,35.1451606 281.736289,35.010678 C278.240952,34.8761953 276.177673,33.0382659 276.088018,29.9451651 C275.998363,26.8520644 275.955959,23.4899983 275.955959,20.0382772 C275.955959,16.9451764 275.998363,13.7624205 276.088018,10.6693197 C276.177673,7.84518426 277.971987,5.78311708 281.559402,5.69346199 C284.784562,5.60380689 288.146628,5.55897934 291.554734,5.55897934 C294.9168,5.55897934 298.323693,5.60380689 301.551277,5.69346199 C304.644377,5.78311708 306.7961,7.57621898 306.930582,10.7141473 C307.020237,13.5831103 307.065065,16.9003488 307.065065,20.0831047 C307.065065,23.6693085 307.020237,27.1210296 306.930582,29.7210274 C306.7961,32.7693006 304.822476,34.8761953 301.416794,35.010678" id="Fill-13" fill="#295282"></path>
                    <path d="M326.341395,23.758479 C326.341395,26.8067522 328.178113,29.5860601 329.971215,29.5860601 C333.019488,29.5860601 338.578104,18.8274488 339.206901,11.2964208 C339.249306,10.7584902 339.385,10.3998698 339.653965,10.1757321 C331.227598,10.982628 326.341395,18.1550355 326.341395,23.758479 M341.76086,11.2515932 C341.76086,15.4205551 335.844835,32.275713 329.836732,32.275713 C327.5057,32.275713 324.010363,29.2274397 324.010363,23.9377892 C324.010363,16.8102091 330.286219,8.11366492 341.178102,8.11366492 C348.887228,8.11366492 355.657399,13.0446951 355.657399,20.9343435 C355.657399,31.9619201 343.419479,35.5481239 341.850515,35.5481239 C340.863097,35.5481239 340.326378,34.9205383 340.326378,34.2929526 C340.326378,33.755022 340.731038,33.1722639 341.669993,32.9929537 C347.722924,31.6929549 353.102229,27.5239929 353.102229,20.7550333 C353.102229,14.4791767 347.543613,10.086077 341.133274,10.086077 C341.537934,10.3102147 341.76086,10.7136627 341.76086,11.2515932" id="Fill-15" fill="#295282"></path>
                    <path d="M389.545814,22.4587224 C393.043574,22.4587224 396.540123,22.3690673 399.588396,22.2345847 C401.514769,22.1449296 402.681497,21.0690684 402.726324,19.3656216 C402.771152,18.4242431 402.771152,17.2138994 402.771152,16.0035556 C402.771152,12.4621793 402.681497,10.8932152 399.543568,10.7587325 C396.763049,10.6690774 393.178057,10.6242499 389.545814,10.6242499 L389.545814,22.4587224 Z M387.169954,10.6242499 C383.495306,10.6242499 379.952719,10.6690774 377.21945,10.7587325 C375.200999,10.8035601 374.126349,12.193214 374.036694,13.6276956 C373.991866,14.3897639 373.991866,15.4207975 373.991866,16.4966586 C373.991866,20.8001031 374.172388,22.100102 377.264277,22.2345847 C380.132029,22.3690673 383.584961,22.4587224 387.169954,22.4587224 L387.169954,10.6242499 Z M387.169954,24.7000998 C383.495306,24.6552722 379.863063,24.5656171 376.367726,24.4311345 C373.41032,24.3414794 371.796528,22.5035499 371.705661,20.3070001 C371.660834,19.0070013 371.616006,17.7070024 371.616006,16.4070035 C371.616006,15.1070046 371.660834,13.8518333 371.705661,12.7311446 C371.796528,10.713905 373.365492,8.6518378 376.278071,8.56218271 C379.684965,8.47252761 383.405651,8.42770007 387.169954,8.42770007 L387.125126,1.07598229 C387.125126,0.358741535 387.753923,0.000121155533 388.336682,0.000121155533 C388.964267,0.000121155533 389.590641,0.358741535 389.590641,1.07598229 L389.545814,8.42770007 C393.357367,8.42770007 397.212536,8.47252761 400.752701,8.56218271 C403.307871,8.60701026 404.967702,10.4897672 405.102184,12.4173518 C405.191839,13.582868 405.191839,14.9276944 405.191839,16.2725209 C405.191839,17.6173473 405.191839,19.0070013 405.102184,20.2621726 C405.012529,22.3690673 403.263043,24.2966518 400.484947,24.4311345 C396.897531,24.6104447 393.178057,24.7000998 389.545814,24.7000998 L389.590641,37.8345712 C389.590641,38.5069844 388.964267,38.8656047 388.336682,38.8656047 C387.753923,38.8656047 387.125126,38.5069844 387.125126,37.8345712 L387.169954,24.7000998 Z" id="Fill-17" fill="#295282"></path>
                    <path d="M453.332264,22.368825 C452.300018,19.6343446 449.567961,16.0033133 445.844852,13.9860736 C445.487443,13.8067634 445.35296,13.4929706 445.35296,13.1791778 C445.35296,12.6412472 445.800024,12.1033166 446.519688,12.1033166 C448.401233,12.1033166 455.797779,18.8274488 455.797779,21.8308944 C455.797779,22.6826178 455.171405,23.2653759 454.498991,23.2653759 C454.049504,23.2653759 453.557613,22.9964107 453.332264,22.368825 Z M427.243843,16.4964163 C425.404702,16.720554 423.701255,16.8550367 422.579355,16.8550367 C421.774882,16.8550367 421.370222,16.2722785 421.370222,15.734348 C421.370222,15.1515899 421.774882,14.5688317 422.53695,14.5240042 C424.016259,14.4791767 425.404702,14.4791767 427.063321,14.344694 L429.977111,14.0309012 C430.561081,11.9240065 431.278322,8.74125059 431.725386,5.82746001 C431.815041,5.0653917 432.442627,4.70677132 433.024173,4.70677132 C433.654182,4.70677132 434.280556,5.1550468 434.280556,5.9171151 C434.280556,6.58952831 433.428833,11.0722831 432.577109,13.7619359 C436.074869,13.4481431 436.119697,13.4481431 436.251757,13.4481431 C439.077104,13.4481431 441.497791,14.837797 441.497791,19.8584823 C441.497791,27.120545 439.389685,34.6964005 432.802458,34.6964005 C431.635731,34.6964005 428.723152,34.4274352 428.723152,32.8584711 C428.723152,32.275713 429.215043,31.6929549 429.932284,31.6929549 C430.066767,31.6929549 430.201249,31.6929549 430.336943,31.7377824 C431.233494,32.0067477 432.085218,32.1412303 432.892114,32.1412303 C438.405902,32.1412303 439.077104,23.3998586 439.077104,20.1722752 C439.077104,17.3033121 438.540385,15.5998653 435.84952,15.5998653 C435.178318,15.5998653 433.966763,15.6895204 431.995563,15.9136582 C429.754185,23.0860658 426.658661,29.4067499 423.073669,34.4722628 C422.624182,35.0998485 422.042636,35.3688137 421.459877,35.3688137 C420.743848,35.3688137 420.16109,34.9205383 420.16109,34.2481251 C420.16109,33.8446771 420.339189,33.4412292 420.743848,32.9481262 C423.835737,29.4515775 427.199015,22.9067556 429.394353,16.227451 L427.243843,16.4964163 Z" id="Fill-19" fill="#295282"></path>
                    <path d="M481.304532,9.27954462 C481.125222,9.32437217 480.989528,9.36919972 480.812641,9.36919972 C480.0954,9.36919972 479.645913,8.7864416 479.645913,8.24851103 C479.645913,7.88989065 479.780395,7.57609782 480.182632,7.44161518 C481.34936,6.99333971 481.886079,6.67954687 481.886079,6.32092649 C481.886079,6.00713366 481.439015,5.69334083 480.587291,5.15541026 C477.359708,3.09334308 477.13557,2.95886044 477.13557,2.24161968 C477.13557,1.65886156 477.629885,1.21058609 478.301086,1.21058609 C478.613668,1.21058609 478.9735,1.34506873 479.288504,1.56920647 C480.140227,2.19679213 481.439015,3.00368799 482.516087,3.63127365 C483.814875,4.4381695 485.383839,5.42437555 485.428666,6.50023668 C485.428666,7.75540801 484.981602,8.20368348 481.304532,9.27954462 M480.989528,38.2381402 C480.050572,38.2381402 479.51143,37.6105546 479.51143,36.9829689 C479.51143,36.4002108 479.91609,35.8174527 480.902296,35.6381425 C483.322983,35.1450395 485.786075,34.4277987 487.357463,33.5312478 C491.794178,30.93125 493.722974,27.9726319 493.722974,25.6415994 C493.722974,22.9519466 491.389519,21.920913 488.881599,21.920913 C484.174707,21.920913 478.658495,25.4174617 476.282635,27.4795289 C475.430912,28.2415972 474.668843,28.6002176 474.042469,28.6002176 C472.78851,28.6002176 471.981614,27.5243564 471.981614,24.1622904 C471.981614,22.3691885 472.203328,20.3519488 472.38385,18.8726398 C472.743682,15.9588492 473.325229,13.0450586 473.640233,11.0726465 C473.729888,10.3554058 474.357474,9.99678538 474.894193,9.99678538 C475.430912,9.99678538 475.971265,10.3554058 475.971265,11.027819 L475.971265,11.2519567 C475.701089,13.1795412 475.16437,15.8243665 474.804538,18.0209164 C474.536784,19.8140183 474.266607,21.6967753 474.266607,23.1760843 C474.266607,23.8933251 474.266607,25.1933239 474.804538,25.1933239 C475.028675,25.1933239 475.386084,24.9691862 475.790744,24.7002209 C479.645913,22.3243609 484.261939,19.7243632 489.013659,19.7243632 C493.588492,19.7243632 496.32176,22.2347058 496.32176,25.5967719 C496.32176,28.6450451 494.080383,32.3657315 489.013659,35.4588323 C486.592971,36.9381414 482.245911,38.2381402 480.989528,38.2381402" id="Fill-21" fill="#295282"></path>
                    <g id="Group-25" transform="translate(514.911017, 30.182388)">
                        <mask id="mask-2" fill="white">
                            <use xlink:href="#path-1"></use>
                        </mask>
                        <g id="Clip-24"></g>
                        <path d="M8.9801693,8.54897676 C8.62033736,8.54897676 8.21810099,8.36966657 7.94792415,7.96621864 C6.64913683,5.99380655 3.6444796,3.75242918 1.44792978,2.6317405 C1.00086586,2.40760276 0.776728125,2.00415484 0.776728125,1.64553446 C0.776728125,1.06277634 1.22379204,0.524845771 1.93982125,0.524845771 C3.42155342,0.524845771 10.2789566,5.23173825 10.2789566,7.29380543 C10.2789566,8.05587373 9.65258251,8.54897676 8.9801693,8.54897676" id="Fill-23" fill="#295282" mask="url(#mask-2)"></path>
                    </g>
                    <g id="Group-28" transform="translate(0.000000, 80.865398)" fill="#295282">
                        <path d="M8.38384176,9.56291114 C7.66417789,9.56291114 6.99297624,9.02498057 6.99297624,8.17325717 C6.99297624,7.00774094 11.1619381,0.821539395 11.2964208,0.642229205 C11.5217701,0.373263921 11.7895238,0.238781278 12.1033166,0.238781278 C12.6860748,0.238781278 13.2676213,0.687056752 13.2676213,1.31464242 C13.2676213,1.76291789 10.8493569,6.64912056 9.77228418,8.66636019 C9.45849135,9.29394585 8.92056078,9.56291114 8.38384176,9.56291114 M1.52401546,9.56291114 C0.76194715,9.56291114 -0.000121155534,8.98015302 -0.000121155534,8.12842962 C-0.000121155534,7.81463679 0.0895339393,7.50084396 0.314883232,7.14222358 C4.66194377,0.507746563 5.1114308,0.193953731 5.73780491,0.193953731 C6.32056303,0.193953731 6.90210959,0.597401658 6.90210959,1.22498732 C6.90210959,1.85257298 3.81022037,7.18705112 2.86763032,8.75601528 C2.5102215,9.3387734 2.01833003,9.56291114 1.52401546,9.56291114" id="Fill-26"></path>
                    </g>
                    <path d="M57.0779469,108.583224 C57.0779469,107.19357 57.0331193,105.759088 56.9882918,104.593572 C56.9434642,103.159091 56.1365684,102.352195 54.2974274,102.307367 C53.0882951,102.26254 51.4296759,102.217712 49.7262291,102.217712 C48.0215707,102.217712 46.3181239,102.26254 45.0193366,102.307367 C42.9136534,102.397022 42.2388171,103.428056 42.1939896,104.593572 C42.1515851,105.759088 42.1067576,107.19357 42.1067576,108.583224 C42.1067576,109.56943 42.1515851,110.555636 42.1515851,111.362532 C42.2388171,113.872874 44.0779581,113.872874 49.6814015,113.872874 C55.5986378,113.872874 56.9882918,113.872874 57.0331193,111.272877 C57.0331193,110.510808 57.0779469,109.56943 57.0779469,108.583224 M59.4538069,103.965986 C59.4986344,105.400468 59.543462,107.148742 59.543462,108.852189 C59.543462,109.883223 59.543462,110.914256 59.4986344,111.855635 C59.4089793,114.14184 57.9744978,115.665976 55.1043232,115.845286 C53.6250142,115.934942 51.6538136,115.979769 49.6814015,115.979769 C47.7550286,115.979769 45.8262325,115.934942 44.3469234,115.845286 C41.2998617,115.665976 39.8629571,114.14184 39.7757251,111.94529 C39.7308976,111.003911 39.7308976,109.92805 39.7308976,108.897017 C39.7308976,107.19357 39.7757251,105.490123 39.8181296,104.145297 C39.9077846,102.217712 41.2538226,100.42461 44.2124408,100.290128 C45.8262325,100.200472 47.7550286,100.200472 49.6814015,100.200472 C51.6089861,100.200472 53.5353591,100.200472 55.0594957,100.290128 C57.7503601,100.379783 59.3641518,101.948747 59.4538069,103.965986 M37.6215797,95.7625452 C36.9055505,95.7625452 36.5481417,95.1349596 36.5481417,94.5522015 C36.5481417,94.0142709 36.860723,93.4763403 37.4870971,93.4315128 C38.6538249,93.3866852 39.9077846,93.2970301 41.1641675,93.207375 C42.7331317,90.2935845 45.87106,82.5832463 46.5434732,79.7142833 C46.6779559,79.1763527 47.1698473,78.952215 47.6641619,78.952215 C48.3814027,78.952215 49.1882985,79.4004904 49.1882985,80.1177312 C49.1882985,80.6108342 46.4986457,87.6487592 43.8077813,92.9384098 C48.6491564,92.4453067 53.7607083,91.728066 57.6146659,90.9211701 C56.3158786,89.352206 54.8365695,87.9177244 53.358472,86.6625531 C53.0882951,86.4384154 52.99864,86.2142776 52.99864,85.9901399 C52.99864,85.4522093 53.5801866,84.9591063 54.2525998,84.9591063 C55.9560466,84.9591063 62.9515671,93.207375 62.9515671,94.8659943 C62.9515671,95.6728901 62.2767308,96.2556483 61.6043176,96.2556483 C61.2020812,96.2556483 60.7525942,96.0315105 60.5308796,95.49358 C60.0813925,94.5522015 59.543462,93.610823 58.9619154,92.714272 C51.8319123,94.3728913 39.6400309,95.7625452 37.6215797,95.7625452 M33.4077903,86.079795 C31.7067666,84.197038 29.5974487,82.7625565 27.7171149,81.7315229 C27.3572829,81.5522127 27.2215887,81.2384199 27.2215887,80.924627 C27.2215887,80.3418689 27.8043469,79.7142833 28.4791832,79.7142833 C29.2400399,79.7142833 35.6055517,83.3004871 35.6055517,85.0487614 C35.6055517,85.8108297 34.9767544,86.4832429 34.2595137,86.4832429 C33.9917599,86.4832429 33.6779671,86.3935878 33.4077903,86.079795 M26.7745248,115.845286 C26.0572841,115.845286 25.4733144,115.262528 25.4733144,114.590115 C25.4733144,114.32115 25.5629695,114.052185 25.7883188,113.783219 C28.7457253,110.465981 30.9871027,106.790122 33.095209,102.172885 C33.3205583,101.724609 33.6779671,101.545299 34.1274541,101.545299 C34.7090007,101.545299 35.3365864,101.948747 35.3365864,102.665988 C35.3365864,103.472883 31.5710724,111.228049 27.983657,115.217701 C27.5814207,115.665976 27.1319336,115.845286 26.7745248,115.845286 M31.1215854,95.583235 C29.286079,94.103926 26.7296973,93.0728924 24.8009012,92.4453067 C24.3538373,92.3108241 24.1745271,91.9522037 24.1745271,91.5935833 C24.1745271,91.0108252 24.6664185,90.338412 25.4284868,90.338412 C26.2802102,90.338412 30.1378024,91.728066 32.5136624,93.3418577 C32.9158988,93.610823 33.095209,94.0142709 33.095209,94.4177188 C33.095209,95.1349596 32.5136624,95.8522003 31.8388261,95.8522003 C31.6158999,95.8522003 31.3469347,95.7625452 31.1215854,95.583235" id="Fill-29" fill="#295282"></path>
                    <path d="M109.172524,115.352183 C107.513905,113.738392 104.1058,111.900462 102.044944,111.228049 C101.595457,111.093566 101.41857,110.779774 101.41857,110.421153 C101.41857,109.883223 101.865634,109.345292 102.492008,109.345292 C103.298904,109.345292 111.05407,112.393565 111.05407,114.410805 C111.05407,115.083218 110.560967,115.710804 109.934593,115.710804 C109.709243,115.710804 109.440278,115.576321 109.172524,115.352183 Z M96.7092546,90.338412 L96.1725356,90.3832396 C95.185118,92.3108241 93.9311582,94.103926 92.4966767,95.7625452 L92.6299478,95.7625452 C93.9759857,95.7177177 95.5897774,95.6728901 97.2483967,95.6728901 C98.9518435,95.6728901 100.611674,95.7177177 102.000117,95.7625452 C102.357526,95.7625452 102.717357,95.8073728 103.029939,95.8522003 C101.327704,94.103926 99.936838,92.1763414 98.9518435,90.3832396 L96.7092546,90.338412 Z M103.92649,100.917713 C103.92649,97.3763369 103.881662,97.3763369 98.0552926,97.3763369 C96.2173631,97.3763369 94.288567,97.3763369 92.9897797,97.4211645 C91.2851213,97.465992 90.6587472,98.2728879 90.6587472,99.2590939 C90.6587472,99.7073694 90.6139197,100.290128 90.6139197,100.917713 L103.92649,100.917713 Z M90.5690921,102.486677 C90.5690921,103.203918 90.5690921,103.876331 90.6139197,104.369434 C90.7035748,106.162536 91.912707,106.207364 97.2035692,106.207364 C102.807013,106.207364 103.836835,106.162536 103.92649,104.279779 C103.92649,103.786676 103.971317,103.159091 103.971317,102.486677 L90.5690921,102.486677 Z M96.2621907,107.910811 C89.1794382,107.910811 88.5518525,107.37288 88.5518525,103.293573 C88.5518525,102.038402 88.5978916,100.693575 88.640296,99.4832317 C87.2506421,100.60392 84.7402994,102.352195 83.888576,102.352195 C83.2609904,102.352195 82.8139264,101.814264 82.8139264,101.276334 C82.8139264,100.917713 82.9944482,100.60392 83.4415121,100.379783 C85.5920228,99.3935766 87.4759914,98.1832328 89.0449555,96.7487513 C88.1932321,95.8522003 86.7139231,94.8659943 85.7725446,94.3280637 C85.4575402,94.1487535 85.3242691,93.8797882 85.3242691,93.610823 C85.3242691,93.1625475 85.7265055,92.6694445 86.3540911,92.6694445 C87.5656465,92.6694445 90.3437428,95.4039249 90.3885704,95.4487524 C91.8678795,93.8797882 93.0346072,92.1763414 93.9759857,90.3832396 L85.3703082,90.4280671 C84.6506443,90.4280671 84.2932355,89.9349641 84.2932355,89.4418611 C84.2932355,88.9935856 84.6506443,88.5004826 85.3703082,88.5004826 L94.8277091,88.5453101 C95.2747731,87.469449 95.5897774,86.4384154 95.8575312,85.4073818 C95.9920138,84.7797961 96.4863284,84.5108308 96.9333923,84.5108308 C97.5161504,84.5108308 98.0552926,84.8694512 98.0552926,85.4522093 C98.0552926,85.9004848 97.4264953,87.469449 96.9794314,88.5453101 L109.709243,88.5004826 C110.426484,88.5004826 110.786316,88.9935856 110.786316,89.4418611 C110.786316,89.9349641 110.426484,90.4280671 109.709243,90.4280671 L100.923044,90.3832396 C102.089772,92.221169 103.569081,93.9694433 105.2277,95.4487524 C106.30235,94.7315116 107.784082,93.3418577 108.500111,92.4901343 C108.67821,92.2659965 108.947175,92.1763414 109.172524,92.1763414 C109.754071,92.1763414 110.381657,92.6694445 110.381657,93.2522026 C110.381657,93.5211679 110.292001,94.1487535 106.526487,96.5246135 C108.140279,97.7797849 109.934593,98.8108185 111.772522,99.6177143 C112.220798,99.7970245 112.400108,100.155645 112.400108,100.514265 C112.400108,101.097023 111.905793,101.724609 111.188552,101.724609 C110.381657,101.724609 107.916141,100.155645 105.900113,98.4970256 L105.900113,98.6763358 C105.989768,99.752197 106.034596,100.962541 106.034596,102.172885 C106.034596,107.19357 105.810458,107.910811 98.4575289,107.910811 L98.4575289,111.407359 C98.4575289,111.631497 98.5023565,113.514254 98.5023565,113.514254 L98.5023565,113.603909 C98.5023565,115.352183 97.6058055,117.010803 93.9311582,117.010803 C90.882885,117.010803 90.3885704,116.562527 90.3885704,115.710804 C90.3885704,115.128046 90.7932299,114.590115 91.4656431,114.590115 L91.6449533,114.590115 C92.5875433,114.724598 93.4368436,114.814253 94.1104684,114.814253 C95.5449499,114.814253 96.3070182,114.410805 96.3070182,113.065979 L96.2621907,107.910811 Z M83.6208223,116.024597 C82.9484091,116.024597 82.4989221,115.397011 82.4989221,114.814253 C82.4989221,114.410805 82.6794438,114.007357 83.1713353,113.828047 C85.9518548,112.841841 88.507025,111.362532 90.7035748,109.434947 C90.882885,109.300465 91.0609836,109.210809 91.2402938,109.210809 C91.7806475,109.210809 92.2725389,109.793568 92.2725389,110.421153 C92.2725389,112.1246 84.2932355,116.024597 83.6208223,116.024597 Z M77.3449657,93.5659954 C76.6713409,92.2659965 75.4622087,90.6970324 74.385136,89.845309 C74.1173822,89.6659988 74.0277271,89.4418611 74.0277271,89.2177233 C74.0277271,88.7246203 74.6104853,88.2763448 75.1920318,88.2763448 C76.2691045,88.2763448 79.2713386,91.6384109 79.2713386,92.8039271 C79.2713386,93.4763403 78.6449645,94.0590984 78.107034,94.0590984 C77.7932411,94.0590984 77.5230643,93.9246158 77.3449657,93.5659954 Z M94.0208133,79.3556629 C94.0208133,78.5039395 94.648399,78.1004916 95.2747731,78.1004916 C95.9023587,78.1004916 96.5311559,78.5039395 96.5311559,79.3556629 L96.5311559,82.3591086 C101.640285,82.3591086 106.841492,82.3591086 110.516139,82.4039361 C111.23338,82.4039361 111.593212,82.9418667 111.593212,83.4349697 C111.593212,83.9280727 111.23338,84.4660033 110.516139,84.4660033 C106.124251,84.4211757 99.7139118,84.3763482 94.0656408,84.3763482 C90.6139197,84.3763482 87.4311638,84.3763482 85.234614,84.4211757 C83.0816802,84.4660033 82.1875523,85.5418644 82.1875523,87.2901388 L82.1875523,87.4246214 C82.2747843,89.4418611 82.3196119,91.5039282 82.3196119,93.5211679 C82.3196119,101.590126 81.4230609,109.39012 76.9403062,115.397011 C76.5841089,115.890114 76.1334103,116.114252 75.6863464,116.114252 C75.0127216,116.114252 74.4299635,115.576321 74.4299635,114.948736 C74.4299635,114.724598 74.5196186,114.50046 74.7001404,114.276322 C78.0173789,109.972878 79.3622053,105.131503 79.8540968,100.110817 C78.9599689,100.738403 75.8196175,102.755643 74.6104853,102.755643 C73.848417,102.755643 73.401353,102.083229 73.401353,101.455644 C73.401353,101.007368 73.6678952,100.60392 74.1634213,100.42461 C76.4035872,99.752197 78.3299601,98.855646 80.0334069,97.8246124 C80.0782345,96.7935788 80.123062,95.7177177 80.123062,94.6418566 C80.123062,92.1763414 79.9885794,89.6659988 79.8989243,87.2004837 L79.8989243,86.8866909 C79.8989243,84.0625554 81.6920262,82.4039361 84.9656487,82.4039361 C87.4759914,82.4039361 90.6587472,82.3591086 94.0656408,82.3591086 L94.0208133,79.3556629 Z" id="Fill-31" fill="#295282"></path>
                    <path d="M130.845553,89.352206 C130.845553,88.7246203 133.941077,83.3901422 134.880032,81.821178 C135.239864,81.2384199 135.731756,81.0142821 136.22607,81.0142821 C136.988139,81.0142821 137.750207,81.5970403 137.750207,82.4487637 C137.750207,82.7625565 137.660552,83.0763493 137.435203,83.4349697 C133.089354,90.0694467 132.638655,90.3832396 132.012281,90.3832396 C131.429523,90.3832396 130.845553,89.9797916 130.845553,89.352206 M125.646769,90.338412 C125.065223,90.338412 124.480041,89.8901365 124.480041,89.2625509 C124.480041,88.8142754 126.900729,83.9280727 127.977802,81.9108331 C128.292806,81.2832474 128.829525,81.0142821 129.366244,81.0142821 C130.083485,81.0142821 130.758321,81.5522127 130.758321,82.4039361 C130.758321,83.5694523 126.588148,89.7556539 126.453665,89.9349641 C126.228316,90.2039294 125.961774,90.338412 125.646769,90.338412" id="Fill-33" fill="#295282"></path>
                    <path d="M160.105099,88.2317596 C158.983199,88.4110698 158.04182,88.5007249 157.234924,88.5007249 C154.94872,88.5007249 152.932691,87.8283117 152.932691,86.5283128 C152.932691,85.9455547 153.379755,85.4524516 154.096996,85.4524516 C154.367173,85.4524516 154.727005,85.5421067 155.129241,85.811072 C155.66596,86.1696924 156.562511,86.3490026 157.594756,86.3490026 C158.848716,86.3490026 160.462508,86.0800373 161.359059,85.9007271 C161.853373,84.1076252 161.989068,83.1662467 162.121127,81.2386622 C162.165955,80.566249 162.795963,80.2076286 163.422338,80.2076286 C164.049923,80.2076286 164.676297,80.566249 164.676297,81.3283173 C164.676297,81.8214203 164.63147,82.4938335 163.824574,85.2731415 C165.529232,84.7800384 167.096985,84.1524528 167.903881,83.7041773 C168.12923,83.5696947 168.399407,83.4800396 168.621121,83.4800396 C169.248707,83.4800396 169.743022,83.9731426 169.743022,84.5559007 C169.743022,85.9455547 167.00733,86.7524505 163.062506,87.6490015 C162.346476,89.6214136 161.137344,92.0421011 159.87975,94.2386509 C161.046478,93.7455479 162.165955,93.4765826 163.287855,93.4765826 C165.798198,93.4765826 167.94992,94.9110641 168.621121,98.4076128 C170.775267,97.2869242 173.06026,96.2558906 175.076288,95.3593396 C176.198189,94.8662366 177.587843,94.328306 178.88663,93.6110653 C179.291289,93.3869275 179.648698,93.2972724 179.963703,93.2972724 C180.770598,93.2972724 181.307317,93.9248581 181.307317,94.5524438 C181.307317,95.0455468 180.994736,95.5386498 180.368362,95.8524426 C179.06594,96.4352008 178.169389,96.704166 175.793529,97.600717 C173.462497,98.4972679 170.996982,99.6179566 168.846471,100.693818 C168.891298,101.769679 168.936126,103.114505 168.936126,104.369677 C168.936126,106.655882 168.936126,108.090363 167.501644,108.090363 C166.962502,108.090363 166.470611,107.686915 166.470611,106.880019 L166.470611,106.745537 C166.515438,105.714503 166.560266,104.414504 166.560266,103.248988 L166.560266,101.948989 C163.558032,103.697263 159.523552,106.207606 159.523552,109.345534 C159.523552,110.242085 160.239582,113.559324 166.110779,113.559324 C168.576294,113.559324 171.177503,113.021393 172.476291,112.573118 C172.746467,112.483463 173.015433,112.438635 173.238359,112.438635 C174.090082,112.438635 174.584397,113.021393 174.584397,113.648979 C174.584397,114.276565 174.179737,114.90415 173.151127,115.173116 C171.537335,115.621391 169.161475,115.980011 166.740788,115.980011 C159.208548,115.980011 157.147692,112.080015 157.147692,109.6145 C157.147692,104.907607 163.108545,101.411059 166.425783,99.5731291 C166.065951,96.5696834 164.63147,95.4041672 162.838368,95.4041672 C161.046478,95.4041672 158.893544,96.5696834 157.147692,98.3179578 C155.66596,100.335197 155.038375,101.007611 154.231479,101.007611 C153.605105,101.007611 153.113213,100.559335 153.113213,100.021405 C153.113213,99.6627842 153.2901,99.3041638 153.69476,98.9007159 C154.94872,97.7351996 158.401652,94.0145132 160.596991,88.186932 L160.105099,88.2317596 Z" id="Fill-35" fill="#295282"></path>
                    <path d="M224.019368,93.6109441 C221.958512,92.3109452 219.62748,91.638532 217.07231,91.638532 C216.757305,91.638532 216.444724,91.6833596 216.12972,91.6833596 L216.040065,91.6833596 C215.367651,91.6833596 215.009031,91.2350841 215.009031,90.7419811 C215.009031,89.9350852 215.412479,89.4419822 217.519374,89.4419822 C219.537825,89.4419822 225.677987,90.3833607 225.677987,92.4902554 C225.677987,93.1626686 225.141268,93.7454268 224.511259,93.7454268 C224.3792,93.7454268 224.198678,93.7005992 224.019368,93.6109441 Z M209.674553,107.955759 C207.434387,107.955759 204.296459,108.807483 204.296459,110.600585 C204.296459,112.079894 206.536625,113.42472 208.957312,113.42472 C211.333172,113.42472 213.574549,112.169549 214.111268,109.838516 C214.200924,109.479896 214.246963,109.121276 214.29179,108.807483 C212.767654,108.269552 211.198689,107.955759 209.674553,107.955759 Z M214.336618,105.535072 C214.336618,103.786797 214.156096,101.410937 214.156096,99.6178355 C214.156096,96.3902521 214.426273,95.6730113 215.503346,95.6730113 C216.084892,95.6730113 216.622823,96.0764592 216.622823,96.7937 L216.622823,97.0626653 C216.489552,97.9143887 216.399897,98.5419743 216.399897,99.5730079 L216.399897,100.335076 C216.399897,102.038523 216.489552,104.055763 216.531956,105.624727 C216.531956,106.162657 216.622823,106.790243 216.622823,107.373001 C219.940061,108.717828 223.212472,111.138515 223.212472,112.617824 C223.212472,113.379893 222.630926,113.962651 221.958512,113.962651 C221.59868,113.962651 221.196444,113.78334 220.88144,113.379893 C219.850406,112.079894 218.281442,110.824722 216.531956,109.838516 L216.444724,110.421274 C215.682656,113.693685 212.365417,115.486787 209.00214,115.486787 C205.237837,115.486787 202.097486,113.200582 202.097486,110.555757 C202.097486,108.000587 205.237837,105.893692 209.764208,105.893692 C211.243517,105.893692 212.812481,106.162657 214.336618,106.566105 L214.336618,105.535072 Z M200.171113,89.262672 C198.872325,89.262672 196.002151,89.2178445 196.002151,87.6937079 C196.002151,87.1109497 196.40681,86.5730192 197.124051,86.5730192 C197.300938,86.5730192 197.48146,86.6178467 197.705598,86.6626743 C198.602149,86.9316396 199.679221,87.0661222 200.843526,87.0661222 C202.187141,87.0661222 203.668873,86.886812 205.058527,86.5281916 C205.640074,84.8247448 205.955078,82.8971603 206.222832,81.1937135 C206.312487,80.5213003 206.894033,80.2075074 207.434387,80.2075074 C208.060761,80.2075074 208.643519,80.5661278 208.643519,81.2833686 C208.643519,82.0454369 207.790584,85.1385377 207.524042,85.9454335 C208.867657,85.4523305 210.121617,84.8695724 211.109034,84.1971592 C211.333172,84.017849 211.558521,83.9730214 211.780236,83.9730214 C212.410245,83.9730214 212.902136,84.4661244 212.902136,85.0488826 C212.902136,86.3488814 209.94473,87.379915 206.806801,88.3212935 C204.743523,93.521289 201.695249,98.8557672 198.288356,104.190245 C197.930947,104.773003 197.390593,105.041969 196.898702,105.041969 C196.272328,105.041969 195.731974,104.593693 195.731974,103.92128 C195.731974,103.652315 195.822841,103.338522 196.046978,103.024729 C200.396462,96.5247347 201.965426,94.1488747 204.296459,88.769569 C202.904382,89.0833618 201.515939,89.262672 200.171113,89.262672 Z" id="Fill-37" fill="#295282"></path>
                    <path d="M256.762136,115.172873 C254.564374,110.197016 250.172486,103.965986 246.943691,100.200472 C245.642481,98.6763358 244.971279,97.2418543 244.971279,95.8073728 C244.971279,94.2832362 245.732136,92.7590996 247.436794,91.0556528 C250.61955,87.8728969 254.473508,84.3763482 256.985062,80.6108342 C257.343682,80.0729036 257.791958,79.8487659 258.241445,79.8487659 C259.003513,79.8487659 259.674715,80.4763516 259.674715,81.2832474 C259.674715,81.5970403 259.58506,81.9556606 259.314883,82.2694535 C256.491959,85.8556573 252.593174,89.3073784 249.274724,92.5797894 C248.063168,93.7901332 247.481622,94.7315116 247.481622,95.7177177 C247.481622,96.6142686 247.975936,97.465992 248.82766,98.5866807 C252.859716,103.652194 256.894195,108.538396 259.405749,113.648737 C259.540232,113.962529 259.629887,114.231495 259.629887,114.50046 C259.629887,115.397011 258.822991,116.069424 258.060923,116.069424 C257.524204,116.069424 257.029889,115.800459 256.762136,115.172873" id="Fill-39" fill="#295282"></path>
                    <path d="M286.393266,81.507264 C287.110506,81.507264 287.872575,81.9555395 287.872575,82.7624353 C287.872575,82.9865731 287.827747,84.779675 287.200161,93.0727712 C286.885157,97.1969056 286.525325,100.917592 286.525325,104.638278 C286.525325,105.355519 286.525325,106.027932 286.570153,106.745173 C286.705847,110.510687 289.305845,112.483099 292.935664,112.483099 C296.254114,112.483099 300.423076,110.869308 304.502383,107.552069 C304.90462,107.193449 305.309279,107.058966 305.669111,107.058966 C306.431179,107.058966 306.967898,107.731379 306.967898,108.493448 C306.967898,108.896895 306.788588,109.389998 306.341524,109.748619 C302.126523,113.20034 297.150665,115.038269 293.026531,115.038269 C288.094289,115.038269 284.240332,112.438272 284.062233,106.745173 C284.017406,106.07276 284.017406,105.445174 284.017406,104.817589 C284.017406,100.917592 284.464469,97.4658709 284.644991,93.296909 C284.779474,90.6072561 285.047228,86.7520871 285.047228,83.883124 L285.047228,82.8520904 C285.047228,81.9107119 285.718429,81.507264 286.393266,81.507264" id="Fill-41" fill="#295282"></path>
                    <path d="M353.409722,95.4939434 C351.661448,94.8215302 349.375243,94.3732547 347.224732,94.3732547 C345.787827,94.3732547 344.399385,94.5525649 343.23508,95.0008404 C343.099386,95.0456679 342.964903,95.0904955 342.830421,95.0904955 C342.202835,95.0904955 341.798176,94.5525649 341.798176,94.0146344 C341.798176,92.26636 346.282142,92.1318774 347.626968,92.1318774 C349.690247,92.1318774 351.97524,92.4456702 354.126963,93.2077385 C354.753337,93.4318762 354.978686,93.9249793 354.978686,94.3732547 C354.978686,95.0008404 354.574027,95.5835985 353.901613,95.5835985 C353.724726,95.5835985 353.589032,95.538771 353.409722,95.4939434 M348.747657,114.187031 C342.428184,114.187031 338.61542,111.362895 338.61542,109.838759 C338.61542,109.121518 339.245429,108.493932 339.91663,108.493932 C340.229212,108.493932 340.544216,108.628415 340.85922,108.987035 C342.337318,110.780137 344.578695,111.497378 347.761451,111.497378 C349.194721,111.497378 350.809724,111.362895 352.602826,111.09393 L352.873003,111.09393 C353.724726,111.09393 354.17179,111.676688 354.17179,112.349101 C354.17179,113.424962 353.184373,114.187031 348.747657,114.187031 M328.890265,91.0111887 C327.363705,91.0111887 325.974051,90.7870509 324.720092,90.2939479 C324.225777,90.0698102 323.958023,89.5767072 323.958023,89.0836041 C323.958023,88.500846 324.270605,87.9629155 324.987845,87.9629155 C325.122328,87.9629155 325.347677,88.007743 325.571815,88.0973981 C326.826986,88.5456736 328.170601,88.7249838 329.516639,88.7249838 C330.725771,88.7249838 331.937327,88.5905011 333.146459,88.3215358 C333.371808,87.2008472 333.461463,86.2146411 333.461463,85.3180902 C333.461463,84.3767117 333.371808,83.5249883 333.282153,82.76292 L333.282153,82.5836098 C333.282153,81.8215415 333.8637,81.4629211 334.493709,81.4629211 C335.613186,81.4629211 335.971806,82.2249894 335.971806,84.3767117 C335.971806,85.4077453 335.882151,86.5284339 335.658013,87.6042951 C337.046456,87.1111921 338.302839,86.4836064 339.335084,85.8111932 C339.511971,85.6767105 339.73732,85.631883 339.961458,85.631883 C340.589043,85.631883 341.216629,86.2146411 341.216629,86.8422268 C341.216629,87.4249849 340.768354,88.4560185 335.075255,90.0698102 C332.160253,100.245663 328.80061,108.314622 326.514405,113.424962 C326.199401,114.097376 325.617854,114.411168 325.0775,114.411168 C324.406299,114.411168 323.823541,113.962893 323.823541,113.200825 C323.823541,112.887032 323.913196,112.573239 324.093718,112.169791 C326.199401,107.911174 329.652333,100.200836 332.520085,90.6525683 C331.310953,90.876706 330.05457,91.0111887 328.890265,91.0111887" id="Fill-43" fill="#295282"></path>
                    <path d="M402.406716,101.590248 C401.77913,97.8247336 399.626196,94.2833573 396.892928,92.3557728 C396.533096,92.1316351 396.398613,91.7730147 396.398613,91.4143943 C396.398613,90.8316362 396.8481,90.2937056 397.565341,90.2937056 C399.538964,90.2937056 405.142408,97.1074928 405.142408,101.007489 C405.142408,102.083351 404.335512,102.710936 403.615848,102.710936 C403.034302,102.710936 402.541199,102.352316 402.406716,101.590248 M385.775696,102.621281 C386.448109,102.621281 387.120522,103.248867 387.120522,103.966108 C387.120522,104.235073 385.059667,110.824722 380.979148,110.824722 C378.694155,110.824722 373.267599,108.000587 372.460703,95.0902532 C372.328643,93.1178411 372.283816,92.1764626 372.283816,91.145429 C372.283816,89.755775 372.371048,88.769569 373.582603,88.769569 C374.836563,88.769569 374.88139,89.6661199 374.88139,92.2661177 C374.88139,105.221279 379.588283,108.000587 380.934321,108.000587 C381.472251,108.000587 382.996388,107.776449 384.655007,103.473005 C384.923972,102.890246 385.326209,102.621281 385.775696,102.621281" id="Fill-45" fill="#295282"></path>
                    <g id="Group-49" transform="translate(420.409701, 106.510374)">
                        <mask id="mask-4" fill="white">
                            <use xlink:href="#path-3"></use>
                        </mask>
                        <g id="Clip-48"></g>
                        <path d="M5.57739498,2.16286858 C3.60377134,2.16286858 1.98997964,3.77666029 1.98997964,5.74907238 C1.98997964,7.72148446 3.60377134,9.38010372 5.57739498,9.38010372 C7.54859552,9.38010372 9.20721477,7.72148446 9.20721477,5.74907238 C9.20721477,3.77666029 7.54859552,2.16286858 5.57739498,2.16286858 M5.57739498,10.9042403 C2.7072204,10.9042403 0.421015479,8.61803541 0.421015479,5.74907238 C0.421015479,2.88010934 2.7072204,0.549076878 5.57739498,0.549076878 C8.44514646,0.549076878 10.7761789,2.88010934 10.7761789,5.74907238 C10.7761789,8.61803541 8.44514646,10.9042403 5.57739498,10.9042403" id="Fill-47" fill="#295282" mask="url(#mask-4)"></path>
                    </g>
                </g>
            </g>
        </g>
    </g>
</svg>