<?xml version="1.0" encoding="UTF-8"?>
<svg width="19px" height="19px" viewBox="0 0 19 19" version="1.1" xmlns="http://www.w3.org/2000/svg" xmlns:xlink="http://www.w3.org/1999/xlink">
    <!-- Generator: Sketch 49.1 (51147) - http://www.bohemiancoding.com/sketch -->
    <title>ico-instagram</title>
    <desc>Created with Sketch.</desc>
    <defs></defs>
    <g id="Symbols" stroke="none" stroke-width="1" fill="none" fill-rule="evenodd">
        <g id="tpl/footer" transform="translate(-1221.000000, -184.000000)" fill="#295282">
            <g id="Group-3" transform="translate(1221.000000, 183.328125)">
                <path d="M2,4.671875 L2,15.671875 C2,16.7772278 2.89559849,17.671875 4,17.671875 L15,17.671875 C16.1053528,17.671875 17,16.7762765 17,15.671875 L17,4.671875 C17,3.56652218 16.1044015,2.671875 15,2.671875 L4,2.671875 C2.89464718,2.671875 2,3.56747349 2,4.671875 Z M0,4.671875 C0,2.4655095 1.78747387,0.671875 4,0.671875 L15,0.671875 C17.2063655,0.671875 19,2.45934887 19,4.671875 L19,15.671875 C19,17.8782405 17.2125261,19.671875 15,19.671875 L4,19.671875 C1.7936345,19.671875 0,17.8844011 0,15.671875 L0,4.671875 Z" id="Rectangle" fill-rule="nonzero"></path>
                <path d="M10,14.671875 C7.01471863,14.671875 5,12.6571564 5,10.671875 C5,7.68659363 7.01471863,5.671875 10,5.671875 C11.9852814,5.671875 14,7.68659363 14,10.671875 C14,12.6571564 11.9852814,14.671875 10,14.671875 Z M10,12.671875 C10.8807119,12.671875 12,11.5525869 12,10.671875 C12,8.79116313 10.8807119,7.671875 10,7.671875 C8.11928813,7.671875 7,8.79116313 7,10.671875 C7,11.5525869 8.11928813,12.671875 10,12.671875 Z" id="Oval-5" fill-rule="nonzero"></path>
                <circle id="Oval-6" cx="15" cy="4.671875" r="1"></circle>
            </g>
        </g>
    </g>
</svg>