<?xml version="1.0" encoding="UTF-8"?>
<svg width="19px" height="19px" viewBox="0 0 19 19" version="1.1" xmlns="http://www.w3.org/2000/svg" xmlns:xlink="http://www.w3.org/1999/xlink">
    <!-- Generator: Sketch 49.1 (51147) - http://www.bohemiancoding.com/sketch -->
    <title>ico-facebook</title>
    <desc>Created with Sketch.</desc>
    <defs></defs>
    <g id="Symbols" stroke="none" stroke-width="1" fill="none" fill-rule="evenodd">
        <g id="tpl/footer" transform="translate(-1248.000000, -184.000000)" fill="#295282">
            <g id="Group-2" transform="translate(1252.000000, 184.328125)">
                <path d="M7.24514819,7.34231888 L10.5784815,7.34231888 L10.5784815,10.5330096 L7.24514819,10.5330096 L7.24514819,17.9609375 L3.91181486,17.9609375 L3.91181486,10.5330096 L0.578481525,10.5330096 L0.578481525,7.34231888 L3.91181486,7.34231888 L3.91181486,5.98946603 C3.91181486,5.30878322 4.02292486,4.61960041 4.24514819,3.92189846 C4.46737153,3.22419651 4.77403486,2.6711509 5.16514819,2.2627393 C5.98293153,1.39486824 7.01403153,0.9609375 8.25848153,0.9609375 L10.5784815,0.9609375 L10.5784815,4.15162819 L8.25848153,4.15162819 C7.97403486,4.15162819 7.73403819,4.24096753 7.53848153,4.41964621 C7.34292486,4.59832489 7.24514819,4.82379824 7.24514819,5.09607264 L7.24514819,7.34231888 Z" id="Page-1"></path>
            </g>
        </g>
    </g>
</svg>