<?xml version="1.0" encoding="UTF-8"?>
<svg width="33px" height="32px" viewBox="0 0 33 32" version="1.1" xmlns="http://www.w3.org/2000/svg" xmlns:xlink="http://www.w3.org/1999/xlink">
    <!-- Generator: Sketch 49.1 (51147) - http://www.bohemiancoding.com/sketch -->
    <title>ico-line-color</title>
    <desc>Created with Sketch.</desc>
    <defs></defs>
    <g id="Page-1" stroke="none" stroke-width="1" fill="none" fill-rule="evenodd">
        <g id="top2" transform="translate(-842.000000, -4784.000000)" fill="#1ABC01" fill-rule="nonzero">
            <g id="line" transform="translate(842.000000, 4784.000000)">
                <path d="M15.0528252,30.9551895 C14.9901243,30.7918071 15.029643,30.0350179 15.1406434,29.2734435 C15.3470424,27.8573507 15.259346,27.2719003 14.7813999,26.8752428 C14.640202,26.758057 13.6982979,26.4942526 12.6882809,26.2890084 C6.207442,24.9720504 1.6771616,21.1842215 0.342756472,15.9667497 C-0.739233147,11.7362079 0.967759121,7.17620865 4.79607604,4.07031112 C6.11818113,2.9976922 8.77797207,1.59689233 10.4987405,1.06695625 C12.0977487,0.574517075 14.7376347,0.177612388 16.4139157,0.177612388 C18.0901967,0.177612388 20.7300827,0.574517075 22.3290903,1.06695625 C23.008894,1.27631105 24.3199439,1.83476534 25.2425345,2.30796518 C29.0879507,4.28028923 31.5415246,7.18092842 32.4850726,10.8701681 C33.6404969,15.3878289 31.8094979,19.6523219 26.8858778,23.9109899 C23.3349684,26.9823357 16.7403698,31.2522725 15.5478123,31.2522725 C15.3382703,31.2522725 15.115526,31.1185896 15.0528252,30.9551895 Z M10.3106733,17.6605661 C10.6493237,17.5318113 10.7635996,17.3625208 10.7635996,16.9895911 C10.7635996,16.2132465 10.4781751,16.0670445 8.96256084,16.0670445 L7.5852963,16.0670445 L7.5852963,13.1233605 C7.5852963,10.6320196 7.54039217,10.1300579 7.29307078,9.85677156 C6.93046528,9.45609529 6.56216884,9.4462761 6.14247749,9.82609211 C5.8505186,10.0903115 5.81957252,10.4508935 5.81957252,13.5886499 C5.81957252,17.1254865 5.88023573,17.4794894 6.52586203,17.7102306 C6.99125738,17.8765583 9.84092189,17.8391655 10.3106733,17.6605661 Z M13.1914698,17.3329149 C13.3507646,17.1352121 13.4121853,16.1211446 13.4121853,13.6888583 C13.4121853,10.9244076 13.3627856,10.248206 13.1373151,9.92630047 C12.8105608,9.45979271 12.4119151,9.42559064 11.9693665,9.82609211 C11.6767543,10.0909012 11.6464615,10.4543896 11.6464615,13.700671 C11.6464615,17.1476834 11.6605696,17.2929071 12.0198768,17.5445775 C12.4298637,17.8317424 12.8508281,17.7556909 13.1914698,17.3329149 Z M16.1984762,15.2966628 C16.225656,14.0694212 16.3051136,13.0676325 16.3750486,13.0704683 C16.4449818,13.0733111 17.2463573,14.099382 18.1558799,15.3506445 C19.0654024,16.6019088 19.9541601,17.6634831 20.1308949,17.7097009 C20.3076315,17.7559187 20.6162906,17.6788237 20.8168026,17.5383798 C21.1648904,17.2945687 21.1813699,17.1204294 21.1813699,13.6859166 C21.1813699,10.6512484 21.1379843,10.0454233 20.9038987,9.81133772 C20.560642,9.46808102 20.2892627,9.46103931 19.8466822,9.78390544 C19.5507399,9.99980048 19.4918759,10.3192393 19.4156461,12.1230498 L19.3273599,14.2121553 L17.6703412,11.9656655 C16.7589805,10.7300968 15.8680828,9.67307978 15.6905711,9.61673907 C15.5130575,9.56040012 15.2059046,9.6009535 15.0080058,9.70686868 C14.663582,9.89119964 14.6481919,10.0573401 14.6481919,13.5912314 C14.6481919,17.1500477 14.6616467,17.2924498 15.0217308,17.544664 C15.2648868,17.7149769 15.5268231,17.7577321 15.7721634,17.6671558 C16.1259261,17.5365523 16.1520906,17.391069 16.1984762,15.2966628 Z M26.9689692,17.5578981 C27.1848077,17.4067186 27.3601865,17.1484815 27.3586997,16.9840379 C27.352608,16.3095667 27.0535244,16.1572271 25.5584437,16.0670445 L24.0948141,15.9787584 L24.0948141,15.2724689 L24.0948141,14.5661793 L25.5921584,14.4778932 C27.0360632,14.3927588 27.0956087,14.3721775 27.2605149,13.9012572 C27.5410337,13.100196 27.087534,12.8146926 25.4138716,12.738687 L24.0065279,12.6747766 L24.0065279,11.9871826 L24.0065279,11.2995904 L25.3610605,11.2995904 C27.1666243,11.2995904 27.8514285,10.7211481 27.0691776,9.85677156 C26.8217237,9.58333687 26.4953244,9.53386659 24.9387012,9.53386659 C23.9276636,9.53386659 22.9467582,9.6161193 22.7589134,9.71665078 C22.4379648,9.88841863 22.4173765,10.1219762 22.4173765,13.5912314 C22.4173765,18.0573013 22.286517,17.8327683 24.8893898,17.8327683 C26.1306124,17.8327683 26.6802592,17.7601176 26.9689692,17.5578981 Z" id="path2996"></path>
            </g>
        </g>
    </g>
</svg>