<?xml version="1.0" encoding="UTF-8"?>
<svg width="18px" height="18px" viewBox="0 0 18 18" version="1.1" xmlns="http://www.w3.org/2000/svg" xmlns:xlink="http://www.w3.org/1999/xlink">
    <!-- Generator: Sketch 49.1 (51147) - http://www.bohemiancoding.com/sketch -->
    <title>ico-arrow-white</title>
    <desc>Created with Sketch.</desc>
    <defs></defs>
    <g id="Symbols" stroke="none" stroke-width="1" fill="none" fill-rule="evenodd">
        <g id="parts/burret/→">
            <g id="Group-15">
                <g id="Group" transform="translate(8.500000, 9.000000) rotate(-90.000000) translate(-8.500000, -9.000000) translate(-0.500000, 0.500000)" fill="#FFFFFF" fill-rule="nonzero">
                    <path d="M9.35402299,16 C13.4961586,16 16.854023,12.6421356 16.854023,8.5 C16.854023,4.35786438 13.4961586,1 9.35402299,1 C5.21188737,1 1.85402299,4.35786438 1.85402299,8.5 C1.85402299,12.6421356 5.21188737,16 9.35402299,16 Z M9.4,17 C4.70557963,17 0.9,13.1944204 0.9,8.5 C0.9,3.80557963 4.70557963,0 9.4,0 C14.0944204,0 17.9,3.80557963 17.9,8.5 C17.9,13.1944204 14.0944204,17 9.4,17 Z" id="Oval-9"></path>
                    <path d="M6.1291549,7.75276993 C5.95694837,7.5805634 5.95694837,7.30136144 6.1291549,7.1291549 C6.30136144,6.95694837 6.5805634,6.95694837 6.75276993,7.1291549 L9.8708451,10.2472301 C10.0430516,10.4194366 10.0430516,10.6986386 9.8708451,10.8708451 C9.69863856,11.0430516 9.4194366,11.0430516 9.24723007,10.8708451 L6.1291549,7.75276993 Z" id="Line-3"></path>
                    <path d="M9.39868731,7.75276993 C9.22648077,7.5805634 9.22648077,7.30136144 9.39868731,7.1291549 C9.57089385,6.95694837 9.85009581,6.95694837 10.0223023,7.1291549 L13.1403775,10.2472301 C13.312584,10.4194366 13.312584,10.6986386 13.1403775,10.8708451 C12.968171,11.0430516 12.688969,11.0430516 12.5167625,10.8708451 L9.39868731,7.75276993 Z" id="Line-3" transform="translate(11.134766, 9.000000) scale(-1, 1) translate(-11.134766, -9.000000) "></path>
                </g>
                <g id="Group-14" transform="translate(5.200000, 6.193604)"></g>
            </g>
        </g>
    </g>
</svg>