<?xml version="1.0" encoding="UTF-8"?>
<svg width="35px" height="35px" viewBox="0 0 35 35" version="1.1" xmlns="http://www.w3.org/2000/svg" xmlns:xlink="http://www.w3.org/1999/xlink">
    <!-- Generator: Sketch 48.1 (47250) - http://www.bohemiancoding.com/sketch -->
    <title>ico-circle</title>
    <desc>Created with Sketch.</desc>
    <defs></defs>
    <g id="180202_kifune_service" stroke="none" stroke-width="1" fill="none" fill-rule="evenodd" transform="translate(-227.000000, -2407.000000)">
        <g id="Group-14" transform="translate(227.000000, 2407.000000)" fill="#7392B7">
            <path d="M17.3941256,1.27940176 C8.71685993,1.27940176 1.65683843,8.33942327 1.65683843,17.0176453 C1.65683843,25.6953892 8.71685993,32.7554107 17.3941256,32.7554107 C26.0718695,32.7554107 33.1323692,25.6953892 33.1323692,17.0176453 C33.1323692,8.33942327 26.0718695,1.27940176 17.3941256,1.27940176 M17.3941256,34.0345733 C8.01104906,34.0345733 0.377675765,26.4007219 0.377675765,17.0176453 C0.377675765,7.63409058 8.01104906,0.000239095825 17.3941256,0.000239095825 C26.7776803,0.000239095825 34.4115318,7.63409058 34.4115318,17.0176453 C34.4115318,26.4007219 26.7776803,34.0345733 17.3941256,34.0345733" id="Fill-5"></path>
            <path d="M17.3941256,8.35281263 C12.6165128,8.35281263 8.72977111,12.2395544 8.72977111,17.0176453 C8.72977111,21.7947799 12.6165128,25.6819998 17.3941256,25.6819998 C22.1722166,25.6819998 26.0589583,21.7947799 26.0589583,17.0176453 C26.0589583,12.2395544 22.1722166,8.35281263 17.3941256,8.35281263 M17.3941256,26.9611625 C11.9111802,26.9611625 7.45060845,22.5001126 7.45060845,17.0176453 C7.45060845,11.5342217 11.9111802,7.07364997 17.3941256,7.07364997 C22.8775492,7.07364997 27.3381209,11.5342217 27.3381209,17.0176453 C27.3381209,22.5001126 22.8775492,26.9611625 17.3941256,26.9611625" id="Fill-7"></path>
        </g>
    </g>
</svg>